<?xml version="1.0" encoding="UTF-8"?>
<svg version="1.1" xmlns="http://www.w3.org/2000/svg" width="1024" height="1024" viewBox="0 0 1024 1024">
<path d="M0 0 C337.92 0 675.84 0 1024 0 C1024 337.92 1024 675.84 1024 1024 C686.08 1024 348.16 1024 0 1024 C0 686.08 0 348.16 0 0 Z " fill="#FDFDFD" transform="translate(0,0)"/>
<path d="M0 0 C16.88759142 12.23909064 27.12941634 33.76631921 37.98291016 51.11669922 C39.90602038 54.18502513 41.84323044 57.2443237 43.78051758 60.30371094 C54.12571096 76.64564459 64.35848741 93.05801963 74.52758789 109.51000977 C78.60425134 116.10149404 82.70347859 122.67864367 86.8125 129.25 C87.43825928 130.25087646 88.06401855 131.25175293 88.70874023 132.28295898 C91.87923026 137.3522478 95.05300841 142.41945241 98.23046875 147.484375 C104.49074925 157.47120562 110.70299052 167.4825955 116.8125 177.5625 C121.17319438 184.75587455 125.59601913 191.89221394 130.1796875 198.9453125 C132.89285576 203.12334829 135.53548561 207.34550241 138.1875 211.5625 C142.41923723 218.27544785 146.68588007 224.96467251 151 231.625 C151.48114258 232.37088379 151.96228516 233.11676758 152.45800781 233.88525391 C156.16399572 239.58818132 160.00394341 245.19353284 163.86398315 250.79255676 C198.47169691 301.00719772 198.47169691 301.00719772 213.4375 326.4375 C214.07816406 327.52256836 214.71882812 328.60763672 215.37890625 329.72558594 C250.67359282 389.69547168 250.67359282 389.69547168 248.4375 406.4375 C246.9375 409.0625 246.9375 409.0625 244.4375 410.4375 C236.96407438 411.77204029 230.57201285 408.60198636 224.4375 404.4375 C216.59612511 398.50859862 209.58115098 391.86481792 202.6875 384.875 C201.79417969 383.98103516 200.90085937 383.08707031 199.98046875 382.16601562 C195.47125384 377.62691638 191.08653965 373.02998832 186.92578125 368.16845703 C174.13279863 353.28947954 157.78823841 348.5813615 139.46069336 343.47753906 C127.74568803 340.19163917 117.87577987 336.31247063 111.3125 325.6015625 C108.54598737 318.75938395 109.93867059 310.78469059 112.6875 304.1875 C113.57927722 302.25912704 114.49483837 300.34151627 115.4375 298.4375 C119.2755442 290.82393891 119.2755442 290.82393891 119.4375 282.4375 C115.6927765 274.10300479 108.55709661 268.34427545 101.7890625 262.50390625 C98.87743848 259.94535292 96.03140966 257.32084252 93.1875 254.6875 C92.63199463 254.17388916 92.07648926 253.66027832 91.50415039 253.13110352 C88.75988235 250.59230982 86.02021281 248.04871205 83.28515625 245.5 C78.09458067 240.67946865 72.82952121 236.02870926 67.25390625 231.65234375 C57.01230305 223.59826745 46.96968282 215.29262748 37.06591797 206.82763672 C35.36096004 205.37215989 33.6513767 203.92223947 31.94140625 202.47265625 C24.28168086 195.96525104 16.72734879 189.3590876 9.4375 182.4375 C8.82116699 181.85516602 8.20483398 181.27283203 7.56982422 180.67285156 C-11.3456973 162.67628387 -25.89492329 142.7308636 -35.5625 118.4375 C-35.84641602 117.72964355 -36.13033203 117.02178711 -36.42285156 116.29248047 C-37.62464331 113.21209847 -38.5625 110.77341992 -38.5625 107.4375 C-42.9887174 111.46884115 -45.91717478 115.87558214 -49.015625 120.97265625 C-53.29794687 127.88103651 -57.68082766 134.70070036 -62.234375 141.43359375 C-63.08810951 142.69614738 -63.08810951 142.69614738 -63.95909119 143.98420715 C-65.74162969 146.61578623 -67.52706805 149.24538341 -69.3125 151.875 C-71.86237189 155.63947925 -74.40995904 159.40550104 -76.95703125 163.171875 C-77.91084435 164.58166878 -77.91084435 164.58166878 -78.88392639 166.01994324 C-83.13887437 172.31458977 -87.3672406 178.62632675 -91.57421875 184.953125 C-92.39821671 186.19214317 -92.39821671 186.19214317 -93.23886108 187.45619202 C-95.82078142 191.34069297 -98.39901634 195.22759829 -100.97363281 199.11694336 C-105.33725152 205.69628921 -109.71556571 212.19879158 -114.5625 218.4375 C-113.91104004 218.55230713 -113.25958008 218.66711426 -112.58837891 218.78540039 C-77.5551658 225.0398036 -43.64890414 234.9099331 -11.5625 250.4375 C-10.18369973 251.08746445 -8.80479584 251.73720913 -7.42578125 252.38671875 C16.82242141 263.98522152 39.32284611 279.888362 58.98828125 298.17578125 C61.11468316 300.13939641 63.28484195 302.01355981 65.5 303.875 C81.87066162 318.2076813 92.35113139 334.6929212 96.00424194 356.20458984 C96.6909995 360.22485469 97.4350842 364.2347513 98.171875 368.24609375 C98.33946823 369.16317108 98.50706146 370.08024841 98.67973328 371.02511597 C101.31866267 385.3631526 104.22806195 399.64978372 107.125 413.9375 C107.27633141 414.68399181 107.42766281 415.43048363 107.58358002 416.19959641 C116.43121341 459.80564293 126.41081377 503.10885173 137.16671753 546.28363037 C138.77804576 552.7568836 140.35942893 559.23651602 141.91796875 565.72265625 C146.62565631 585.20813743 151.97250977 604.45425946 157.625 623.6875 C180.33994514 700.98742075 180.33994514 700.98742075 180.6875 735.1875 C180.70176025 736.33375854 180.70176025 736.33375854 180.71630859 737.50317383 C180.67440553 744.39622775 180.67440553 744.39622775 178.4375 747.4375 C175.36438789 748.74357265 173.317409 748.70939039 170.13671875 747.7265625 C151.76272924 739.66829649 144.14617531 717.12569605 136.36206055 700.0246582 C128.74807678 683.34439717 122.23368588 671.66229309 105.5625 663.0625 C86.99308728 653.12880817 86.99308728 653.12880817 83.0390625 643.61328125 C80.57273598 634.6928665 82.90047677 627.92674023 87.28515625 620.01953125 C90.11776041 615.18011255 93.32030064 610.61385369 96.6171875 606.08203125 C99.566943 601.79665684 99.84431783 598.5634046 99.4375 593.4375 C97.13609181 585.74069637 93.00709974 579.03008771 88.78442383 572.25912476 C86.87721395 569.20055312 84.99578711 566.12611219 83.109375 563.0546875 C82.72177002 562.42533798 82.33416504 561.79598846 81.93481445 561.14756775 C77.85768269 554.51942258 73.89100962 547.82737693 69.9375 541.125 C64.3267061 531.61600808 64.3267061 531.61600808 58.63964844 522.15258789 C40.08357236 491.53001538 24.33318812 460.03948141 18.4375 424.4375 C18.16945557 423.03407349 18.16945557 423.03407349 17.89599609 421.60229492 C17.40855654 418.23771616 17.35714445 415.08181648 17.41015625 411.68359375 C17.42240234 410.41708984 17.43464844 409.15058594 17.44726562 407.84570312 C17.48247447 405.19460748 17.52154856 402.54356039 17.56445312 399.89257812 C17.57541016 398.62736328 17.58636719 397.36214844 17.59765625 396.05859375 C17.61449463 394.9080249 17.63133301 393.75745605 17.64868164 392.57202148 C17.43299285 389.37060135 16.92791829 387.26649194 15.4375 384.4375 C1.32109182 372.91390149 -23.05051218 371.02899666 -40.55661774 366.80904388 C-42.8905615 366.24624757 -45.22421506 365.68226186 -47.55780029 365.11798096 C-65.9838384 360.66398381 -84.4137683 356.22025624 -102.8855896 351.95956421 C-104.7422284 351.53079799 -106.59821834 351.09921163 -108.45352173 350.66470337 C-110.96958251 350.07699919 -113.48805141 349.50128575 -116.0078125 348.9296875 C-116.72733597 348.75977798 -117.44685944 348.58986847 -118.18818665 348.41481018 C-122.93677752 347.35738761 -122.93677752 347.35738761 -127.5625 348.4375 C-129.73632748 350.17652247 -129.73632748 350.17652247 -131.9375 352.375 C-160.76018266 378.92220771 -194.54335228 386.03154671 -232.55419922 385.59863281 C-235.5625 385.4375 -235.5625 385.4375 -238.5625 384.4375 C-239.90501401 408.27458213 -231.52320435 427.94625548 -215.99023438 445.85791016 C-204.53266711 458.53411745 -190.99229932 465.01564351 -175.30859375 471.08984375 C-151.67672137 480.33468301 -135.90046748 495.2961419 -125.5625 518.4375 C-125.0846626 519.8686349 -124.62210642 521.30514951 -124.1875 522.75 C-122.37812505 528.09693495 -117.73729052 531.84485159 -113.5625 535.4375 C-113.2325 535.4375 -112.9025 535.4375 -112.5625 535.4375 C-112.60890625 534.63828125 -112.6553125 533.8390625 -112.703125 533.015625 C-113.16351501 519.00661479 -108.76819426 507.74958039 -99.578125 497.1484375 C-95.5842543 493.01524572 -91.33912627 489.62191751 -86.5625 486.4375 C-87.35914063 485.78265625 -88.15578125 485.1278125 -88.9765625 484.453125 C-97.71043969 477.02375633 -104.7348556 468.69083574 -105.80078125 456.7734375 C-106.09967357 444.84920714 -102.12995284 436.42702564 -94.04296875 427.8203125 C-84.08043623 418.46377345 -72.90357439 416.01632674 -59.76953125 416.23046875 C-50.61503281 416.55921588 -44.10495329 420.05521977 -37.5625 426.4375 C-31.64687033 433.73215445 -27.9958927 441.22931446 -28.125 450.6875 C-28.12822266 451.42605225 -28.13144531 452.16460449 -28.13476562 452.92553711 C-28.29529146 459.2808381 -29.78642861 464.69945959 -32.5625 470.4375 C-31.03882813 470.67533203 -31.03882813 470.67533203 -29.484375 470.91796875 C-9.33300523 474.25153681 6.65929809 482.72166916 19.47265625 499.02734375 C28.59816804 512.36463022 32.85129226 528.21812697 32.6875 544.25 C32.68073242 545.21631348 32.67396484 546.18262695 32.66699219 547.17822266 C32.5625076 554.4228924 31.98568661 561.34609351 30.4375 568.4375 C30.19257812 569.66082031 29.94765625 570.88414062 29.6953125 572.14453125 C24.54335051 596.17013538 11.19055697 619.50845437 -8.5625 634.4375 C-21.47779262 642.36882351 -34.21344689 645.48646418 -49.17578125 642.78515625 C-65.04493003 638.35699857 -78.09213049 627.40269939 -86.5625 613.4375 C-86.82297119 612.69121338 -87.08344238 611.94492676 -87.35180664 611.17602539 C-88.47321596 608.38043069 -89.42360423 606.5772077 -91.5625 604.4375 C-96.44570027 603.0117202 -101.3224084 602.94677491 -106.375 602.875 C-107.74950416 602.82366056 -109.12386648 602.76836153 -110.49804688 602.70898438 C-113.85351811 602.57947496 -117.20509108 602.49050003 -120.5625 602.4375 C-120.61293457 603.30383057 -120.66336914 604.17016113 -120.71533203 605.06274414 C-121.22866921 613.09249286 -122.12754664 620.93982454 -123.4375 628.875 C-123.79876352 631.15204493 -124.15810235 633.42939596 -124.515625 635.70703125 C-124.69287109 636.8357666 -124.87011719 637.96450195 -125.05273438 639.12744141 C-128.9567896 664.47762377 -130.79521809 689.81153175 -131.5625 715.4375 C-130.1703125 715.45876953 -130.1703125 715.45876953 -128.75 715.48046875 C-113.58144211 715.92521125 -98.70138619 718.56297879 -83.76776123 721.06781006 C-81.5487672 721.43980217 -79.32935747 721.80922757 -77.10986328 722.17822266 C-52.27730067 726.31520611 -27.51300973 730.69665605 -2.98046875 736.3828125 C11.50104086 739.69850468 25.27033749 740.77665383 40.06103516 740.89379883 C58.18265775 741.06405153 74.19038487 744.19658173 91.3125 750.0625 C92.09310791 750.32628448 92.87371582 750.59006897 93.67797852 750.86184692 C102.92330812 753.99331809 112.0861745 757.23408153 120.9375 761.375 C121.67081543 761.71547363 122.40413086 762.05594727 123.15966797 762.40673828 C127.25610372 764.44944616 129.97387699 766.55980765 132.4375 770.4375 C132.4375 773.0625 132.4375 773.0625 131.4375 775.4375 C129.12292384 777.59777108 127.46307125 778.42897625 124.4375 779.4375 C125.0975 780.118125 125.7575 780.79875 126.4375 781.5 C128.92314529 785.15079152 129.07965333 787.10296502 128.4375 791.4375 C126.9375 793.375 126.9375 793.375 124.4375 794.4375 C121.71690731 794.66594671 119.1783346 794.57454173 116.4375 794.4375 C116.458125 795.241875 116.47875 796.04625 116.5 796.875 C116.4375 799.4375 116.4375 799.4375 115.4375 800.4375 C98.77282853 803.48453925 81.51078901 802.24126517 65.51367188 797.01000977 C59.64103602 795.39061524 54.05070326 795.34261525 48.015625 795.4453125 C46.16667222 795.46283586 44.31771352 795.47974346 42.46875 795.49609375 C39.58121026 795.52694772 36.69397322 795.56239577 33.80664062 795.60888672 C31.00126565 795.6516106 28.19623899 795.67477447 25.390625 795.6953125 C24.54236145 795.71393341 23.6940979 795.73255432 22.82012939 795.7517395 C14.12411328 795.78833836 6.80223174 793.37294967 -0.8125 789.25 C-11.49697346 784.24981568 -22.16036247 786.26274695 -33.40454102 788.19311523 C-68.93572223 794.2040153 -105.79985933 794.73202562 -141.75164413 794.80675507 C-143.78422795 794.81242119 -145.81672022 794.82345802 -147.84927368 794.83575439 C-198.69633279 795.0706283 -198.69633279 795.0706283 -211.078125 783.1015625 C-228.80386082 763.23007971 -226.81669405 728.19750083 -226.875 703.4375 C-226.87828308 702.29220825 -226.88156616 701.1469165 -226.88494873 699.96691895 C-226.90711259 675.73806129 -225.24246873 651.73651475 -223.10253906 627.61523438 C-222.50681018 620.87671536 -221.9652763 614.13415573 -221.4296875 607.390625 C-221.34252472 606.29369324 -221.25536194 605.19676147 -221.16555786 604.06658936 C-220.96394151 601.52360617 -220.76287019 598.98058163 -220.5625 596.4375 C-221.26612167 596.12540085 -221.96974335 595.8133017 -222.69468689 595.491745 C-241.49266942 587.14164418 -259.47315694 578.39377919 -275.5625 565.4375 C-276.83673828 564.46683594 -276.83673828 564.46683594 -278.13671875 563.4765625 C-315.2478371 534.51990513 -336.78175138 493.08459758 -345.5625 447.4375 C-345.81241699 446.15456055 -345.81241699 446.15456055 -346.06738281 444.84570312 C-351.06335008 417.84886139 -350.16550176 388.40573335 -345.5625 361.4375 C-345.28050668 359.629022 -344.99926054 357.82042734 -344.71875 356.01171875 C-338.49143472 317.56916096 -324.51652207 280.8559861 -306.5625 246.4375 C-306.20978027 245.75284668 -305.85706055 245.06819336 -305.49365234 244.36279297 C-290.25284475 214.78876888 -271.37142215 187.55293615 -249.5625 162.4375 C-248.61117187 161.33535156 -248.61117187 161.33535156 -247.640625 160.2109375 C-243.82737291 155.82045 -239.94496707 151.49136206 -236.04296875 147.1796875 C-234.22546169 145.17041198 -232.41687909 143.15447905 -230.61328125 141.1328125 C-229.61743745 140.02581676 -228.6213474 138.9190425 -227.625 137.8125 C-226.91585449 137.01247559 -226.91585449 137.01247559 -226.19238281 136.19628906 C-225.0233915 134.90505029 -223.79729478 133.6659625 -222.5625 132.4375 C-221.9025 132.4375 -221.2425 132.4375 -220.5625 132.4375 C-220.5625 131.7775 -220.5625 131.1175 -220.5625 130.4375 C-219.19921875 129.0625 -219.19921875 129.0625 -217.25 127.4375 C-213.84602552 124.54891603 -210.53167602 121.58956322 -207.25 118.5625 C-202.7107504 114.41824035 -198.02791704 110.51171602 -193.24609375 106.65234375 C-190.61541443 104.48117173 -188.08307576 102.23508643 -185.5625 99.9375 C-180.38735184 95.23281985 -175.0004716 90.83313657 -169.5625 86.4375 C-168.33129913 85.42667233 -167.10087382 84.41489951 -165.87109375 83.40234375 C-158.60571332 77.43460998 -151.25511197 71.62778315 -143.70214844 66.02807617 C-139.38365793 62.82171757 -135.12674319 59.54815604 -130.89819336 56.22412109 C-121.66627521 48.96827564 -112.22423798 42.1072159 -102.5625 35.4375 C-101.02211559 34.36591392 -99.48175144 33.29429871 -97.94140625 32.22265625 C-51.15683972 -0.19526232 -51.15683972 -0.19526232 -31.5625 -4.5625 C-30.74007813 -4.75070313 -29.91765625 -4.93890625 -29.0703125 -5.1328125 C-18.71872197 -6.90644951 -8.97229897 -5.47962204 0 0 Z " fill="#F27E51" transform="translate(563.5625,92.5625)"/>
<path d="M0 0 C0.97059357 0.21322906 1.94118713 0.42645813 2.94119263 0.64614868 C3.93118256 0.88175507 4.92117249 1.11736145 5.94116211 1.36010742 C7.78398426 1.75514452 9.62700193 2.14927067 11.47021484 2.54248047 C13.43899947 2.98290307 15.40715219 3.42615727 17.37475586 3.87182617 C18.46235199 4.11689407 19.54994812 4.36196198 20.67050171 4.61445618 C24.24083264 5.42141043 27.80994307 6.23355525 31.37866211 7.04760742 C32.60805511 7.32789795 33.83744812 7.60818848 35.10409546 7.89697266 C54.70888904 12.37828455 74.26780025 17.03627098 93.78764725 21.8741188 C95.73912577 22.35651412 97.6914345 22.83540005 99.64401245 23.31332397 C103.31468003 24.21460936 106.98181494 25.12904924 110.64819336 26.04760742 C111.71782318 26.30866776 112.787453 26.56972809 113.88949585 26.83869934 C133.17257192 31.73197654 133.17257192 31.73197654 138.94116211 38.36010742 C140.25091143 41.62704622 139.99963582 44.83792084 139.89819336 48.32104492 C139.57882835 63.84620278 140.1660004 78.27103194 143.94116211 93.36010742 C144.15015137 94.19799805 144.35914063 95.03588867 144.57446289 95.89916992 C148.02845449 109.27012766 153.1290724 121.85516933 158.94116211 134.36010742 C159.34431641 135.22829102 159.7474707 136.09647461 160.1628418 136.9909668 C167.19916729 151.95078254 175.50573884 166.1132069 184.05444336 180.24047852 C185.72360069 183.00037659 187.38260771 185.765881 189.03491211 188.53588867 C193.02894411 195.2267573 197.04382261 201.90379791 201.11677551 208.54701233 C202.641427 211.03420389 204.16278786 213.52340344 205.68435669 216.01248169 C206.77923635 217.79982763 207.87948369 219.58378499 208.97998047 221.36767578 C222.72159404 243.83883783 222.72159404 243.83883783 221.94116211 253.36010742 C219.82036222 258.70821149 216.75037161 263.11976593 213.44116211 267.79760742 C207.41327284 276.37736034 203.19207781 283.55326516 204.94116211 294.36010742 C208.59349688 305.38734895 218.35328477 310.10739067 227.94116211 315.29760742 C248.6357941 326.63963545 255.514002 344.83317837 264.85595703 365.63793945 C274.25089225 386.43163881 274.25089225 386.43163881 291.82006836 399.78588867 C294.59055564 400.53591009 297.09248287 400.65227965 299.94116211 400.36010742 C300.27116211 399.70010742 300.60116211 399.04010742 300.94116211 398.36010742 C315.21322263 401.01168031 329.32712102 403.79491437 343.12866211 408.36010742 C344.07547852 408.66754883 345.02229492 408.97499023 345.99780273 409.29174805 C355.51277882 412.57207171 365.23659526 416.95097372 369.94116211 426.36010742 C370.58528132 431.72776752 369.6679597 435.05084923 366.65991211 439.38745117 C343.19122992 466.32309778 288.9564433 469.53259419 255.94116211 474.36010742 C254.95776855 474.50544922 253.974375 474.65079102 252.96118164 474.80053711 C194.31325393 483.28202639 134.62759185 484.88892438 75.4765625 484.68267822 C70.25129511 484.66922113 65.02611257 484.67452676 59.80083561 484.6795454 C14.40122773 484.7123738 -30.83222826 483.44473858 -76.05883789 479.36010742 C-76.73114441 479.29952148 -77.40345093 479.23893555 -78.09613037 479.17651367 C-202.48892819 467.87540592 -202.48892819 467.87540592 -232.05883789 436.36010742 C-234.95572897 432.23423225 -235.67372478 428.55616837 -235.45727539 423.59448242 C-234.57288863 418.6349802 -231.88413416 415.71823463 -227.92211914 412.77026367 C-217.89273609 406.42316619 -206.83642679 402.70134079 -195.37133789 399.92260742 C-194.16928711 399.62894287 -192.96723633 399.33527832 -191.72875977 399.03271484 C-170.50113763 393.97495341 -149.12050902 390.38034922 -127.43383789 387.98510742 C-126.65862793 387.89943512 -125.88341797 387.81376282 -125.0847168 387.72549438 C-118.0626054 386.96136201 -111.13457907 386.26342875 -104.05883789 386.36010742 C-103.96179565 387.18865234 -103.96179565 387.18865234 -103.86279297 388.03393555 C-100.68979594 414.77315697 -100.68979594 414.77315697 -87.05883789 437.36010742 C-81.90303956 440.7262364 -77.24966588 442.33258715 -71.24633789 443.54760742 C-70.50319336 443.71196289 -69.76004883 443.87631836 -68.99438477 444.0456543 C-59.04841777 446.16163522 -49.16747822 446.52523806 -39.02368164 446.56323242 C-37.77173508 446.5701561 -36.51978851 446.57707977 -35.22990417 446.58421326 C-31.15201344 446.60155209 -27.07425726 446.60814361 -22.99633789 446.61010742 C-21.95217838 446.61121206 -21.95217838 446.61121206 -20.88692474 446.61233902 C14.46008528 446.64279227 49.92369849 445.51995323 84.94116211 440.36010742 C89.93474635 439.62708403 94.92462853 438.92077882 99.94116211 438.36010742 C101.05749023 438.22733398 102.17381836 438.09456055 103.32397461 437.95776367 C113.50129904 437.29704899 121.10597178 440.94806247 129.94335938 445.51220703 C135.20965703 447.74731051 140.44750171 447.43496971 146.05444336 447.31713867 C147.87930186 447.29471568 149.7041725 447.27326416 151.52905273 447.25268555 C154.37452957 447.21593989 157.21936729 447.17333127 160.06445312 447.11328125 C172.41820208 446.86527489 183.11394221 447.77829201 194.94116211 451.36010742 C201.66021286 453.17886428 207.8586728 453.64408847 214.81616211 453.54760742 C215.78054199 453.54116211 216.74492188 453.5347168 217.73852539 453.52807617 C224.17217232 453.45851148 230.55737428 453.21535172 236.94116211 452.36010742 C237.27116211 450.71010742 237.60116211 449.06010742 237.94116211 447.36010742 C238.65143555 447.22733398 239.36170898 447.09456055 240.09350586 446.95776367 C241.01260742 446.78116211 241.93170898 446.60456055 242.87866211 446.42260742 C244.25344727 446.16157227 244.25344727 446.16157227 245.65600586 445.89526367 C247.89406055 445.58295754 247.89406055 445.58295754 248.94116211 444.36010742 C249.50030024 438.65689848 248.44701861 435.85198606 244.94116211 431.36010742 C246.07553711 430.96823242 247.20991211 430.57635742 248.37866211 430.17260742 C252.02957013 428.74678441 252.02957013 428.74678441 253.19116211 425.98510742 C252.81756819 422.06237124 250.87516778 420.91407431 247.94116211 418.36010742 C245.46712556 416.84477764 242.89690227 415.632887 240.25366211 414.44213867 C239.51108154 414.10108597 238.76850098 413.76003326 238.00341797 413.40864563 C230.56660965 410.06671283 222.95482663 407.33187571 215.21166992 404.79443359 C212.93586635 404.04586552 210.66914617 403.27341047 208.40209961 402.4987793 C193.09014521 397.35444312 178.57703738 395.01147101 162.44470215 394.99301147 C143.47504796 394.92827289 125.6876614 392.46792861 107.22828674 387.97103882 C95.4921961 385.13054003 83.64090191 383.02399317 71.75366211 380.92260742 C69.51796489 380.52477136 67.28228798 380.12682112 65.04663086 379.72875977 C59.6345114 378.76722245 54.22111413 377.81314786 48.8069458 376.86322021 C46.24510836 376.41346778 43.68364862 375.96164089 41.12231445 375.5090332 C24.11802445 372.5117043 7.11863359 370.12263101 -10.05883789 368.36010742 C-11.01962376 330.44109188 -5.44852276 292.66071626 0.94116211 255.36010742 C4.9268855 255.31128414 8.90611411 255.32008731 12.8918457 255.36987305 C14.90600009 255.36027498 16.91873504 255.24389354 18.92944336 255.12573242 C22.94667439 255.04498406 26.09971465 255.15881463 29.94116211 256.36010742 C32.66476488 259.27109406 34.43692157 262.33142881 36.19506836 265.86791992 C42.75149096 278.98076513 54.52396555 287.97263975 67.94116211 293.36010742 C80.81822897 297.45297586 93.9254522 296.57342937 105.94116211 290.36010742 C126.82930411 278.83331774 140.7873492 256.67718767 147.94116211 234.36010742 C155.54782122 207.9416637 155.93309825 181.13008379 142.41772461 156.59448242 C132.69522517 140.25338008 118.52313131 131.26438262 100.60913086 126.25854492 C96.33970433 125.2127855 92.32532414 124.59497324 87.94116211 124.36010742 C88.22991211 123.69108398 88.51866211 123.02206055 88.81616211 122.33276367 C92.91175696 111.73825616 94.46608716 100.14052345 89.78442383 89.48608398 C84.98330829 79.87350011 78.33968052 74.19744472 68.20678711 70.77416992 C55.28623082 68.41282688 43.56794864 70.46631184 32.62866211 77.67260742 C24.93625552 83.40229221 18.8322916 90.72605155 16.94116211 100.36010742 C15.9348796 111.46220786 18.23833769 120.838096 25.28881836 129.57495117 C27.50733869 131.97179228 29.88475251 134.08489428 32.42553711 136.13354492 C33.94116211 137.36010742 33.94116211 137.36010742 35.94116211 139.36010742 C35.22831055 139.91698242 34.51545898 140.47385742 33.78100586 141.04760742 C22.40482411 150.11180607 12.52249285 160.38838915 9.94116211 175.36010742 C9.79661073 180.03221449 9.82451432 184.68771553 9.94116211 189.36010742 C3.45984056 186.47952006 -1.67508957 181.48810692 -4.54321289 175.00463867 C-5.34950644 172.60408288 -6.13450124 170.19627439 -6.89868164 167.78198242 C-12.7410851 150.54984291 -27.45815298 137.73175183 -43.05883789 129.36010742 C-47.52331379 127.35787211 -52.06095854 125.56870212 -56.62133789 123.79760742 C-81.72288943 113.99816129 -100.04135332 98.38568519 -111.87133789 73.86010742 C-116.71313789 62.36083241 -119.05109389 51.78770718 -118.05883789 39.36010742 C-117.56383789 38.37010742 -117.56383789 38.37010742 -117.05883789 37.36010742 C-115.62556152 37.39152832 -115.62556152 37.39152832 -114.16333008 37.42358398 C-76.30342534 38.17906996 -43.92408727 32.45165115 -14.05883789 7.36010742 C-12.51495617 5.77893387 -10.97306519 4.19581228 -9.43383789 2.61010742 C-6.04101149 -0.44123797 -4.44893009 -1.02968535 0 0 Z " fill="#FCFCFC" transform="translate(442.058837890625,439.639892578125)"/>
<path d="M0 0 C17.49530423 -0.2450403 34.96106629 0.4675751 52.4375 1.1875 C53.22034489 1.2194408 54.00318977 1.25138161 54.80975723 1.28429031 C185.5917605 6.64143959 185.5917605 6.64143959 207.01953125 17.1796875 C209.72945571 18.30214142 212.11057448 18.29635134 215 18 C215.33 17.34 215.66 16.68 216 16 C230.27206052 18.65157289 244.38595891 21.43480695 258.1875 26 C259.13431641 26.30744141 260.08113281 26.61488281 261.05664062 26.93164062 C270.57161671 30.21196429 280.29543315 34.5908663 285 44 C285.64411921 49.3676601 284.72679759 52.69074181 281.71875 57.02734375 C258.25006781 83.96299035 204.01528119 87.17248677 171 92 C170.01660645 92.1453418 169.03321289 92.29068359 168.02001953 92.44042969 C109.37209182 100.92191897 49.68642974 102.52881696 -9.46459961 102.3225708 C-14.689867 102.30911371 -19.91504954 102.31441934 -25.1403265 102.31943798 C-70.53993438 102.35226637 -115.77339036 101.08463116 -161 97 C-161.67230652 96.93941406 -162.34461304 96.87882813 -163.03729248 96.81640625 C-287.4300903 85.5152985 -287.4300903 85.5152985 -317 54 C-319.89689108 49.87412483 -320.61488689 46.19606095 -320.3984375 41.234375 C-319.51405074 36.27487278 -316.82529627 33.3581272 -312.86328125 30.41015625 C-302.8338982 24.06305877 -291.7775889 20.34123337 -280.3125 17.5625 C-279.11044922 17.26883545 -277.90839844 16.9751709 -276.66992188 16.67260742 C-255.44229974 11.61484599 -234.06167113 8.0202418 -212.375 5.625 C-211.21218506 5.49649155 -211.21218506 5.49649155 -210.02587891 5.36538696 C-203.00376751 4.60125459 -196.07574118 3.90332133 -189 4 C-188.90295776 4.82854492 -188.90295776 4.82854492 -188.80395508 5.67382812 C-185.63095805 32.41304955 -185.63095805 32.41304955 -172 55 C-166.84420167 58.36612898 -162.19082799 59.97247973 -156.1875 61.1875 C-155.44435547 61.35185547 -154.70121094 61.51621094 -153.93554688 61.68554688 C-143.98957988 63.8015278 -134.10864033 64.16513064 -123.96484375 64.203125 C-122.71289719 64.21004868 -121.46095062 64.21697235 -120.17106628 64.22410583 C-116.09317555 64.24144467 -112.01541937 64.24803619 -107.9375 64.25 C-106.89334049 64.25110464 -106.89334049 64.25110464 -105.82808685 64.2522316 C-70.48107683 64.28268485 -35.01746362 63.15984581 0 58 C4.99358424 57.26697661 9.98346642 56.5606714 15 56 C16.67449219 55.80083984 16.67449219 55.80083984 18.3828125 55.59765625 C28.56013693 54.93694157 36.16480967 58.58795505 45.00219727 63.15209961 C50.26849492 65.38720309 55.5063396 65.07486229 61.11328125 64.95703125 C62.93813975 64.93460826 64.76301039 64.91315674 66.58789062 64.89257812 C69.43336746 64.85583247 72.27820518 64.81322385 75.12329102 64.75317383 C87.47703998 64.50516747 98.17278011 65.41818459 110 69 C116.71905075 70.81875686 122.91751069 71.28398104 129.875 71.1875 C131.32156982 71.17783203 131.32156982 71.17783203 132.79736328 71.16796875 C139.23101021 71.09840406 145.61621217 70.8552443 152 70 C152.33 68.35 152.66 66.7 153 65 C153.71027344 64.86722656 154.42054688 64.73445312 155.15234375 64.59765625 C156.07144531 64.42105469 156.99054688 64.24445313 157.9375 64.0625 C158.85402344 63.88847656 159.77054688 63.71445312 160.71484375 63.53515625 C162.95289844 63.22285012 162.95289844 63.22285012 164 62 C164.55913813 56.29679106 163.5058565 53.49187864 160 49 C161.134375 48.608125 162.26875 48.21625 163.4375 47.8125 C167.08840802 46.38667699 167.08840802 46.38667699 168.25 43.625 C167.87640608 39.70226381 165.93400567 38.55396689 163 36 C160.52596345 34.48467022 157.95574016 33.27277958 155.3125 32.08203125 C154.56991943 31.74097855 153.82733887 31.39992584 153.06225586 31.04853821 C145.62544754 27.70660541 138.01366452 24.97176829 130.27050781 22.43432617 C127.99470424 21.68575809 125.72798406 20.91330305 123.4609375 20.13867188 C108.1489831 14.9943357 93.63587527 12.65136359 77.50354004 12.63290405 C60.53540682 12.57499615 44.59058363 10.73754629 28 7 C27.1239209 6.80438477 26.2478418 6.60876953 25.34521484 6.40722656 C21.73106651 5.59036444 18.12743954 4.74010406 14.53125 3.84765625 C9.72118576 2.693028 4.88006157 1.80104682 0 1 C0 0.67 0 0.34 0 0 Z " fill="#C3BEC5" transform="translate(527,822)"/>
<path d="M0 0 C6.45004842 5.33564215 12.32388757 13.39942861 13.61425781 21.8515625 C13.75008449 23.95234843 13.7787324 26.02011253 13.75 28.125 C13.74516602 29.23282837 13.74516602 29.23282837 13.74023438 30.36303711 C13.57970854 36.7183381 12.08857139 42.13695959 9.3125 47.875 C10.83617187 48.11283203 10.83617187 48.11283203 12.390625 48.35546875 C32.54199477 51.68903681 48.53429809 60.15916916 61.34765625 76.46484375 C64.94739796 81.7260047 67.46457054 87.26625244 69.75 93.1875 C70.00950439 93.85740967 70.26900879 94.52731934 70.53637695 95.2175293 C71.98723711 99.22074545 72.82317752 102.62543347 72.3125 106.875 C65.98000099 117.6978165 49.68640397 123.72420184 38.3125 126.875 C27.12232295 129.65001095 12.50601645 132.60617215 1.3125 128.875 C0.79296875 127.0546875 0.79296875 127.0546875 0.5 124.75 C-0.50272247 119.5107751 -2.71735545 116.37748341 -6.6875 112.875 C-11.09990057 110.0559663 -16.61931316 110.11361837 -21.6875 110.875 C-25.40475587 112.42231546 -28.52557202 114.24905533 -30.890625 117.55859375 C-32.04434884 120.9123106 -31.97631139 124.18477241 -31.9375 127.6875 C-31.94523437 128.37392578 -31.95296875 129.06035156 -31.9609375 129.76757812 C-31.94308673 134.48464538 -31.16328642 138.39493409 -29.6875 142.875 C-41.59382882 143.61147395 -50.13033523 141.04273089 -59.4296875 133.453125 C-66.06784513 127.47023615 -70.17021196 118.98069488 -70.92578125 110.0625 C-71.24743491 96.24832176 -66.75644747 85.02933704 -57.703125 74.5859375 C-53.7092543 70.45274572 -49.46412627 67.05941751 -44.6875 63.875 C-45.88246094 62.89273438 -45.88246094 62.89273438 -47.1015625 61.890625 C-55.83543969 54.46125633 -62.8598556 46.12833574 -63.92578125 34.2109375 C-64.22467357 22.28670714 -60.25495284 13.86452564 -52.16796875 5.2578125 C-38.35809802 -7.71204176 -15.73392207 -11.20879407 0 0 Z " fill="#205C66" transform="translate(521.6875,515.125)"/>
<path d="M0 0 C3.77482323 1.25827441 4.18795051 2.46745183 6.22265625 5.8203125 C7.14582642 7.32380249 7.14582642 7.32380249 8.08764648 8.85766602 C9.06519897 10.47499634 9.06519897 10.47499634 10.0625 12.125 C11.42813565 14.34600702 12.79531992 16.56606259 14.1640625 18.78515625 C14.82696289 19.86297363 15.48986328 20.94079102 16.17285156 22.05126953 C20.95579154 29.77018309 26.06693455 37.26047358 31.2890625 44.6875 C120.96458579 172.31643462 120.96458579 172.31643462 117 202 C115.5 204.625 115.5 204.625 113 206 C105.52657438 207.33454029 99.13451285 204.16448636 93 200 C85.15862511 194.07109862 78.14365098 187.42731792 71.25 180.4375 C70.35667969 179.54353516 69.46335937 178.64957031 68.54296875 177.72851562 C64.03375384 173.18941638 59.64903965 168.59248832 55.48828125 163.73095703 C42.69529863 148.85197954 26.35073841 144.1438615 8.02319336 139.04003906 C-3.69181197 135.75413917 -13.56172013 131.87497063 -20.125 121.1640625 C-22.89151263 114.32188395 -21.49882941 106.34719059 -18.75 99.75 C-17.85822278 97.82162704 -16.94266163 95.90401627 -16 94 C-12.1619558 86.38643891 -12.1619558 86.38643891 -12 78 C-15.74040964 69.67510598 -22.85828853 63.94804611 -29.6015625 58.09765625 C-32.75620476 55.33862874 -35.88901152 52.55814517 -39 49.75 C-39.58861816 49.23026611 -40.17723633 48.71053223 -40.78369141 48.17504883 C-42.24733548 46.84471866 -43.63094636 45.42748886 -45 44 C-45 41 -45 41 -43.75 39.48535156 C-42.88375 38.69596191 -42.88375 38.69596191 -42 37.890625 C-41.36425049 37.30450439 -40.72850098 36.71838379 -40.07348633 36.11450195 C-39.38923584 35.49921631 -38.70498535 34.88393066 -38 34.25 C-37.30737061 33.61602295 -36.61474121 32.9820459 -35.90112305 32.32885742 C-31.98652202 28.75661718 -28.03651686 25.22641429 -24.01953125 21.76953125 C-21.3051394 19.39115696 -18.65423242 16.94495719 -16 14.5 C-11.89375436 10.71764358 -7.75040211 6.98716131 -3.5234375 3.33984375 C-2.30827165 2.27112096 -1.1442894 1.1442894 0 0 Z " fill="#205B65" transform="translate(695,297)"/>
<path d="M0 0 C0.37415039 1.56729858 0.37415039 1.56729858 0.75585938 3.16625977 C6.3415213 26.45586364 12.47616861 49.52675896 19.25 72.5 C41.90157102 149.46390525 41.90157102 149.46390525 42.25 183.75 C42.25950684 184.51417236 42.26901367 185.27834473 42.27880859 186.06567383 C42.23690553 192.95872775 42.23690553 192.95872775 40 196 C36.92688789 197.30607265 34.879909 197.27189039 31.69921875 196.2890625 C13.32522924 188.23079649 5.70867531 165.68819605 -2.07543945 148.5871582 C-9.68942322 131.90689717 -16.20381412 120.22479309 -32.875 111.625 C-51.44441272 101.69130817 -51.44441272 101.69130817 -55.3984375 92.17578125 C-57.86476402 83.2553665 -55.53702323 76.48924023 -51.15234375 68.58203125 C-48.31973959 63.74261255 -45.11719936 59.17635369 -41.8203125 54.64453125 C-38.870557 50.35915684 -38.59318217 47.1259046 -39 42 C-40.96293347 34.69205173 -45.02163416 28.35516794 -49.00170898 22.00195312 C-52 17.19267682 -52 17.19267682 -52 15 C-50.94723877 14.68772461 -49.89447754 14.37544922 -48.80981445 14.05371094 C-44.84168248 12.87647281 -40.87380872 11.69836637 -36.90600586 10.52001953 C-35.2003452 10.01360385 -33.4946179 9.50741254 -31.78881836 9.00146484 C-29.31345625 8.26721647 -26.83831506 7.5322292 -24.36328125 6.796875 C-23.55819122 6.55787476 -22.7531012 6.31887451 -21.9236145 6.07263184 C-16.05214896 4.3251299 -10.20066937 2.52131364 -4.36010742 0.67285156 C-2 0 -2 0 0 0 Z " fill="#205B65" transform="translate(702,644)"/>
<path d="M0 0 C1.06154297 -0.02682861 1.06154297 -0.02682861 2.14453125 -0.05419922 C4.15625 -0.05078125 4.15625 -0.05078125 7.5 0.3125 C8.49 1.7975 8.49 1.7975 9.5 3.3125 C7.98986328 3.33376953 7.98986328 3.33376953 6.44921875 3.35546875 C-18.03482218 4.04229533 -38.80578298 12.19873847 -56.125 29.8125 C-67.46599129 42.86268324 -72.61736824 59.2127754 -71.5 76.3125 C-69.90244504 91.60021348 -61.36620403 104.22222178 -52.5 116.3125 C-61.5838345 113.19804246 -65.4422284 106.48033071 -69.55859375 98.29199219 C-76.87994598 82.89740611 -78.24937699 65.93083212 -72.69506836 49.70068359 C-65.87353754 31.52702548 -51.7029271 17.00047907 -34.5 8.3125 C-23.26728998 3.21827538 -12.33730801 0.21562994 0 0 Z " fill="#175867" transform="translate(354.5,550.6875)"/>
<path d="M0 0 C1.32 0.33 2.64 0.66 4 1 C-5.63950985 14.89569831 -15.4261795 28.43721876 -27.00390625 40.79296875 C-29.90096475 43.99617433 -31.23823177 45.97562179 -31.30859375 50.25390625 C-31.33139404 51.09920898 -31.35419434 51.94451172 -31.37768555 52.81542969 C-31.39742432 53.72196289 -31.41716309 54.62849609 -31.4375 55.5625 C-32.41935136 82.23040682 -39.64699375 108.39408553 -57.64453125 128.87109375 C-59 130 -59 130 -61 130 C-60.46401198 125.7498415 -59.10298701 123.49979795 -56.4375 120.1875 C-43.26590881 102.60177341 -34.96936893 79.33123901 -36.41186523 57.27246094 C-36.820591 50.25854136 -37.06003013 45.11126049 -32.22290039 39.64526367 C-30.07496137 37.51767182 -27.85509421 35.48755222 -25.58984375 33.48583984 C-21.08691339 29.27748079 -17.64987714 23.94550984 -14 19 C-13.11151367 17.80044678 -13.11151367 17.80044678 -12.20507812 16.57666016 C-8.12211888 11.06178696 -4.05481 5.53559779 0 0 Z " fill="#155867" transform="translate(447,313)"/>
<path d="M0 0 C21.87173018 3.67754755 42.26988703 11.97086174 62 22 C61.505 23.485 61.505 23.485 61 25 C57.68686318 24.2864013 54.75929145 23.10515516 51.66015625 21.7421875 C50.60707275 21.28457031 49.55398926 20.82695313 48.46899414 20.35546875 C47.34485107 19.86691406 46.22070801 19.37835937 45.0625 18.875 C30.08596543 12.45097292 14.84402258 6.89607113 -1 3 C-0.67 2.01 -0.34 1.02 0 0 Z " fill="#1A5968" transform="translate(620,862)"/>
<path d="M0 0 C1.32 0.33 2.64 0.66 4 1 C6.48716596 10.81363545 7.48445503 19.80378885 7.375 29.9375 C7.36919922 31.24477051 7.36339844 32.55204102 7.35742188 33.89892578 C7.23616508 42.906734 6.5523439 51.34026176 4 60 C2.02 60.495 2.02 60.495 0 61 C0.32484375 59.10894531 0.32484375 59.10894531 0.65625 57.1796875 C3.82953866 37.69012398 4.01552333 19.36055893 0 0 Z " fill="#165969" transform="translate(422,632)"/>
<path d="M0 0 C0.99 0.33 1.98 0.66 3 1 C1.57134216 7.73036487 -0.15034157 14.32664899 -2.0390625 20.94140625 C-2.32478119 21.94968979 -2.61049988 22.95797333 -2.90487671 23.99681091 C-3.80920323 27.1860555 -4.71704256 30.37428744 -5.625 33.5625 C-6.2424208 35.737564 -6.8596106 37.91269358 -7.4765625 40.08789062 C-8.98170501 45.39268832 -10.48972527 50.69666131 -12 56 C-12.99 56 -13.98 56 -15 56 C-14.39074109 50.04506776 -13.21153487 44.5090315 -11.6015625 38.75 C-11.36593597 37.89245117 -11.13030945 37.03490234 -10.88754272 36.15136719 C-10.39092473 34.34886882 -9.89158399 32.5471186 -9.38964844 30.74609375 C-8.62770372 28.00970991 -7.87570561 25.27073591 -7.125 22.53125 C-6.6386095 20.7706706 -6.15164918 19.0102485 -5.6640625 17.25 C-5.44207184 16.44143555 -5.22008118 15.63287109 -4.99136353 14.79980469 C-3.57788945 9.750304 -1.90418087 4.88630521 0 0 Z " fill="#175868" transform="translate(358,631)"/>
<path d="M0 0 C10.72655709 -0.10194194 21.31563078 -0.07419152 32 1 C32 1.33 32 1.66 32 2 C9.19872014 3.60666308 9.19872014 3.60666308 0 1 C0 0.67 0 0.34 0 0 Z " fill="#BAB4BC" transform="translate(527,822)"/>
<path d="M0 0 C2.75 -0.3984375 2.75 -0.3984375 6 -0.375 C7.60875 -0.38660156 7.60875 -0.38660156 9.25 -0.3984375 C10.1575 -0.26695312 11.065 -0.13546875 12 0 C12.66 0.99 13.32 1.98 14 3 C8.72 3 3.44 3 -2 3 C-1.34 2.01 -0.68 1.02 0 0 Z " fill="#0C5365" transform="translate(350,551)"/>
<path d="M0 0 C1.17266191 3.51798573 0.73410958 4.60797979 -0.375 8.0625 C-0.65085938 8.94035156 -0.92671875 9.81820313 -1.2109375 10.72265625 C-2 13 -2 13 -3 15 C-3.66 15 -4.32 15 -5 15 C-5.33 15.66 -5.66 16.32 -6 17 C-5.49487476 10.77012202 -2.67395877 5.54525767 0 0 Z " fill="#F17340" transform="translate(245,364)"/>
<path d="M0 0 C2.89311672 1.32311027 5.08581133 2.80305739 7.4375 4.9375 C9.56198421 6.8198387 11.40547469 8.23799601 13.875 9.6875 C16 11 16 11 17 14 C13.32177947 12.38750996 10.46975834 10.10253751 7.375 7.5625 C6.41335938 6.78003906 5.45171875 5.99757813 4.4609375 5.19140625 C2 3 2 3 0 0 Z " fill="#EF6F3A" transform="translate(275,646)"/>
<path d="M0 0 C0 5.29753431 -3.66030689 8.77680051 -7.25 12.375 C-8.1575 13.24125 -9.065 14.1075 -10 15 C-10.66 14.67 -11.32 14.34 -12 14 C-8.04 9.38 -4.08 4.76 0 0 Z " fill="#F16F3B" transform="translate(314,255)"/>
<path d="M0 0 C2.430466 2.430466 2.76271993 3.5989856 3 7 C1.5625 9.8125 1.5625 9.8125 0 12 C-2 9 -2 9 -1.7578125 6.73828125 C-1.44457031 5.53751953 -1.44457031 5.53751953 -1.125 4.3125 C-0.92132813 3.50425781 -0.71765625 2.69601562 -0.5078125 1.86328125 C-0.34023438 1.24839844 -0.17265625 0.63351562 0 0 Z " fill="#1F5B65" transform="translate(409,391)"/>
<path d="M0 0 C2.1519437 3.22791555 2.20086443 4.28400809 2 8 C0.68 8.33 -0.64 8.66 -2 9 C-1.34 6.03 -0.68 3.06 0 0 Z " fill="#135869" transform="translate(424,684)"/>
<path d="M0 0 C0.66 0.66 1.32 1.32 2 2 C-1.3 4.97 -4.6 7.94 -8 11 C-8 8 -8 8 -6.25 5.95703125 C-5.5075 5.24933594 -4.765 4.54164063 -4 3.8125 C-2.88625 2.73935547 -2.88625 2.73935547 -1.75 1.64453125 C-1.1725 1.10183594 -0.595 0.55914062 0 0 Z " fill="#F06C39" transform="translate(332,235)"/>
<path d="M0 0 C0 2.64 0 5.28 0 8 C-0.99 8.495 -0.99 8.495 -2 9 C-2.33 6.36 -2.66 3.72 -3 1 C-1 0 -1 0 0 0 Z " fill="#E27B52" transform="translate(417,379)"/>
<path d="M0 0 C1.485 0.99 1.485 0.99 3 2 C3.1875 5.125 3.1875 5.125 3 8 C2.01 8.495 2.01 8.495 1 9 C-0.4783226 6.04335481 -0.06032783 3.25770263 0 0 Z " fill="#2C636D" transform="translate(741,816)"/>
</svg>
