<?xml version="1.0" encoding="UTF-8"?>
<svg version="1.1" xmlns="http://www.w3.org/2000/svg" width="1024" height="1024" viewBox="0 0 1024 1024">
<path d="M0 0 C337.92 0 675.84 0 1024 0 C1024 337.92 1024 675.84 1024 1024 C686.08 1024 348.16 1024 0 1024 C0 686.08 0 348.16 0 0 Z " fill="#BBB1C8" transform="translate(0,0)"/>
<path d="M0 0 C10.84071953 7.8885593 17.17880926 20.77434292 24 32 C25.13618226 33.85319361 26.2728916 35.70606418 27.41015625 37.55859375 C30.3279004 42.32392053 33.22201614 47.10323949 36.11230469 51.88525391 C38.11067351 55.18261415 40.12057714 58.47281451 42.1328125 61.76171875 C51.11030044 76.44903694 59.83158306 91.25829653 68.38964844 106.1953125 C76.67059243 120.61791477 85.31392916 134.81879525 94 149 C94.65871094 150.07588379 95.31742188 151.15176758 95.99609375 152.26025391 C104.56091129 166.23972936 113.19706581 180.16922528 122 194 C122.55397461 194.87076172 123.10794922 195.74152344 123.67871094 196.63867188 C126.04649117 200.36003534 128.41443485 204.08129057 130.78515625 207.80078125 C133.58013701 212.18760535 136.36810523 216.57839707 139.1328125 220.984375 C148.92580405 236.58942857 159.16169065 251.86936227 169.63671875 267.0234375 C171.02294378 269.03326519 172.40297792 271.04721141 173.78125 273.0625 C177.97800516 279.19480217 182.19860103 285.29719406 186.5625 291.3125 C202.92557896 313.97872107 217.91873632 337.77215671 232.5234375 361.59472656 C233.82209572 363.71019957 235.12871303 365.82047629 236.4375 367.9296875 C249.06572157 388.43357414 260.02293342 410.3121146 268.125 433 C268.56827637 434.22795288 268.56827637 434.22795288 269.02050781 435.48071289 C270.84924389 440.81229356 272.19137026 445.37898542 269.75 450.75 C266.91607275 454.39362075 265.05713648 454.8489805 260.5 455.5 C243.8233554 454.91539438 227.33757692 436.19303522 216.71923828 424.90087891 C212.64151764 420.39233973 208.9903054 415.55372691 205.31494141 410.71728516 C190.93362363 391.93559388 175.61325395 384.67502111 153.06054688 378.53515625 C140.66526027 375.13753979 129.27350378 371.80884172 121.5625 360.75 C117.58264295 353.74545159 117.73184494 344.47777412 119.52880859 336.71582031 C121.69224628 329.38880994 124.57233568 322.50315234 128.33691406 315.859375 C129.17736772 313.50263898 128.84789328 312.32241206 128 310 C122.02361007 300.85754636 114.08066602 292.5442174 105.76953125 285.51171875 C102.83920125 283.00832425 100.18289661 280.24251209 97.52734375 277.453125 C92.88502732 272.66813691 87.853121 268.49537235 82.65429688 264.32910156 C80.20459201 262.36095025 77.7685861 260.37607163 75.33129883 258.39257812 C73.28334645 256.72627947 71.23362624 255.0621761 69.18359375 253.3984375 C66.42288746 251.15717397 63.66522 248.91225796 60.91015625 246.6640625 C59.56526854 245.5675067 58.22021735 244.47115138 56.875 243.375 C56.21097168 242.83391602 55.54694336 242.29283203 54.86279297 241.73535156 C50.59567167 238.26851165 46.28078918 234.87060855 41.9375 231.5 C36.96144511 227.63335135 32.17274423 223.59492088 27.4375 219.4375 C21.90701901 214.58326598 16.24865982 210.03606955 10.3828125 205.58984375 C-17.42879149 184.42955919 -36.80169401 162.18730957 -47 128 C-47.3088916 126.97132813 -47.3088916 126.97132813 -47.62402344 125.921875 C-48.80201506 121.96173885 -49.92515413 117.98957495 -51 114 C-51.4125 114.87140625 -51.825 115.7428125 -52.25 116.640625 C-56.23057053 124.90814371 -60.7320465 132.4677507 -66 140 C-67.32709689 141.92311381 -68.65058331 143.84868163 -69.97387695 145.77441406 C-70.91124557 147.13791872 -71.84989458 148.50054399 -72.78979492 149.86230469 C-75.93051955 154.41784326 -79.01036411 159.00978052 -82.0625 163.625 C-88.85539148 173.85914169 -95.96438844 183.78107036 -103.60864258 193.39648438 C-113.23336659 205.55544474 -122.29336185 218.17037712 -131 231 C-130.01990967 231.1697937 -130.01990967 231.1697937 -129.02001953 231.34301758 C-65.25398096 242.63198481 -3.45946511 267.87253636 47 309 C48.28696067 310.02314219 49.57477971 311.04520525 50.86328125 312.06640625 C68.30819246 325.96804651 84.29202897 340.15157462 95 360 C95.6290625 361.14984375 96.258125 362.2996875 96.90625 363.484375 C100.52680384 370.63020495 102.90392471 377.70058612 104.875 385.4375 C105.13230392 386.4368457 105.38960785 387.43619141 105.65470886 388.46582031 C108.27875389 398.825655 110.48739515 409.26499985 112.63955688 419.73129272 C113.80730032 425.40340879 114.99667036 431.07097357 116.1875 436.73828125 C116.54337944 438.43250969 116.54337944 438.43250969 116.90644836 440.16096497 C121.48658625 461.87028165 126.61176303 483.46569634 131.84423828 505.02612305 C133.11265592 510.2580207 134.34677963 515.49538654 135.53515625 520.74609375 C139.90726692 539.99284245 144.94684304 559.02023846 150.12838745 578.06245422 C151.60426213 583.49951093 153.02049971 588.94876756 154.39428711 594.41259766 C157.66832319 607.39629792 161.72755587 620.12271039 165.76126099 632.88461304 C168.68073994 642.13598304 171.54591776 651.40396011 174.38867188 660.6791687 C174.99337773 662.64831804 175.60054174 664.61671459 176.21044922 666.58425903 C179.88430923 678.44003069 183.16108691 690.29928017 185.91552734 702.40332031 C186.89692744 706.67453511 188.07074744 710.8597091 189.3125 715.0625 C195.80599802 737.69435436 200.28141974 761.12344923 204.49609375 784.27148438 C204.8383099 786.12449197 205.19562686 787.97476145 205.56640625 789.82226562 C206.72672371 795.73494717 207.31262824 801.35225114 207.25 807.375 C207.25773438 808.14199219 207.26546875 808.90898438 207.2734375 809.69921875 C207.25886611 813.91763619 206.93276846 817.14980252 205 821 C198.27798555 822.50902365 194.5029417 821.18688323 188.91015625 817.6953125 C179.45622586 811.01608575 173.0475726 801.43830155 167.7265625 791.328125 C167.3425528 790.6000766 166.95854309 789.8720282 166.56289673 789.12191772 C161.51325064 779.35476273 157.45152687 769.1560814 153.296875 758.98583984 C144.38932546 736.2522883 144.38932546 736.2522883 125.79956055 721.58935547 C123.96160917 720.82255839 122.11558786 720.07519796 120.26953125 719.328125 C110.12905048 715.20893329 102.00085279 708.87292826 97 699 C95.07482261 693.22446782 95.07003766 687.21557918 97.75 681.6875 C100.18374826 677.43484515 103.05472569 673.92221884 106.5625 670.5 C110.52442796 666.43648414 112.42962398 663.23374303 112.4375 657.5 C111.96158708 643.49456263 105.36998146 632.57438612 98.56054688 620.73730469 C96.99388486 617.98927364 95.46892059 615.2216833 93.953125 612.4453125 C86.06776654 598.08782209 77.23755954 584.51837982 68 571 C42.00193068 532.83425441 20.45715004 493.36144213 19.82421875 446.12890625 C19.81223953 445.35192383 19.80026031 444.57494141 19.78791809 443.77441406 C19.73921857 440.54921235 19.69165277 437.32442026 19.67407227 434.09887695 C19.65860531 431.71244415 19.61848383 429.32745593 19.57421875 426.94140625 C19.57708138 425.85539879 19.57708138 425.85539879 19.58000183 424.74745178 C19.4624529 419.88867893 18.48789332 417.38140454 15 414 C5.84863581 407.8766694 -6.03722469 404.46592851 -16.44921875 401.15625 C-17.52013763 400.81522751 -18.59105652 400.47420502 -19.69442749 400.12284851 C-31.19838909 396.52765915 -42.84553175 393.55894329 -54.54833984 390.68969727 C-58.13221119 389.81073141 -61.71274922 388.91910286 -65.29296875 388.02539062 C-79.04118278 384.61060821 -92.82656565 381.45569448 -106.68035889 378.50131226 C-109.68556042 377.85183922 -112.67972051 377.16010009 -115.671875 376.453125 C-116.97511719 376.14568359 -116.97511719 376.14568359 -118.3046875 375.83203125 C-119.98278258 375.43261245 -121.65981954 375.02872969 -123.3359375 374.62109375 C-125.88300612 374.02472572 -128.43124572 373.49424504 -131 373 C-131.91692627 372.81260254 -132.83385254 372.62520508 -133.77856445 372.43212891 C-138.83947833 371.64233357 -142.10080074 371.54060923 -146.44921875 374.4296875 C-147.88230175 375.55266292 -149.29461772 376.70253266 -150.6875 377.875 C-152.25187308 379.08933109 -153.82096888 380.29760048 -155.39453125 381.5 C-156.16877441 382.098125 -156.94301758 382.69625 -157.74072266 383.3125 C-178.78552627 399.03128999 -205.2152256 404.83315626 -231.02734375 405.17578125 C-231.82966934 405.18778564 -232.63199493 405.19979004 -233.45863342 405.2121582 C-236.80390565 405.26085917 -240.14878308 405.30835797 -243.49438477 405.32592773 C-245.96429721 405.34136617 -248.43280279 405.38147502 -250.90234375 405.42578125 C-251.65652084 405.42387283 -252.41069794 405.42196442 -253.18772888 405.41999817 C-256.70407064 405.50225486 -258.63438065 405.71408705 -261.44360352 407.91088867 C-265.88173367 413.86807764 -264.52402994 422.74066968 -263.5 429.8125 C-260.64751626 442.0602274 -253.32964805 452.8445065 -245 462 C-244.25621094 462.83917969 -243.51242187 463.67835938 -242.74609375 464.54296875 C-240.51522548 467.04542099 -238.26054425 469.52435205 -236 472 C-234.45676238 473.70691433 -232.91508698 475.41524242 -231.375 477.125 C-230.63378906 477.94613281 -229.89257812 478.76726562 -229.12890625 479.61328125 C-226.63775827 482.40610954 -224.20695583 485.24701127 -221.80078125 488.11328125 C-215.9144117 494.28056215 -209.98786417 496.93739382 -202.06607056 500.04821777 C-198.78908194 501.33850789 -195.5297219 502.67186003 -192.26953125 504.00390625 C-191.63224594 504.26372284 -190.99496063 504.52353943 -190.33836365 504.79122925 C-178.83429101 509.50243249 -168.24476422 514.50991041 -159 523 C-158.15953125 523.73734375 -157.3190625 524.4746875 -156.453125 525.234375 C-146.46678897 534.49443205 -141.10082036 545.48240036 -136.98925781 558.22680664 C-134.88004056 564.7550044 -133.25140389 568.78981963 -127 572 C-127.04640625 571.06800781 -127.0928125 570.13601563 -127.140625 569.17578125 C-127.54571874 554.86729176 -124.44256937 542.32928466 -114.57275391 531.42285156 C-111.1584825 527.83148026 -107.59331051 524.41085751 -104 521 C-102.66225169 519.67109631 -101.32698423 518.33965234 -100 517 C-100.87011719 516.07380859 -100.87011719 516.07380859 -101.7578125 515.12890625 C-111.13512602 504.96241288 -118.88428422 494.8247254 -119.5 480.4375 C-119.05292959 470.41446976 -114.86766488 462.17663958 -108 455 C-97.71608261 445.61405461 -84.25872294 440.27611822 -70.37109375 440.65234375 C-57.86110948 441.94248118 -47.50793139 447.17225695 -39.50390625 456.84765625 C-33.19847646 465.87179083 -32.15493744 475.21173381 -33 486 C-34.04549705 490.45135208 -35.40613649 494.71649181 -37 499 C-36.35933594 498.97679687 -35.71867187 498.95359375 -35.05859375 498.9296875 C-34.19363281 498.91164063 -33.32867188 498.89359375 -32.4375 498.875 C-31.59058594 498.85179687 -30.74367188 498.82859375 -29.87109375 498.8046875 C-17.66476196 499.63505021 -6.06853607 508.27188623 3 516 C3.80953125 516.65355469 4.6190625 517.30710937 5.453125 517.98046875 C18.65576802 529.09741816 32.34627787 549.750587 34.38012695 567.27539062 C34.53672047 570.83934772 34.55427419 574.37057186 34.5 577.9375 C34.48296021 579.84523193 34.48296021 579.84523193 34.46557617 581.79150391 C34.24607108 592.56016551 32.88036218 602.63498807 30 613 C29.82339844 613.65532715 29.64679688 614.3106543 29.46484375 614.98583984 C24.80246779 631.79197836 16.82827192 647.38075424 6 661 C5.34386719 661.83917969 4.68773437 662.67835938 4.01171875 663.54296875 C-6.13989386 675.75432885 -21.32708287 685.65500866 -37.39501953 687.2355957 C-54.77730784 688.16913257 -67.33739242 684.81736307 -80.53808594 673.32617188 C-90.08914229 664.66195375 -97.52152187 654.48159798 -101 642 C-101.62261719 642.19335938 -102.24523437 642.38671875 -102.88671875 642.5859375 C-109.9001798 644.56183587 -116.71034235 645.47136165 -123.95703125 646.1015625 C-125.40994568 646.23365112 -125.40994568 646.23365112 -126.89221191 646.3684082 C-129.26112835 646.58316659 -131.63034385 646.79359237 -134 647 C-137.03086255 674.17299239 -139.52823136 701.34387547 -141.3125 728.625 C-141.35605118 729.28628403 -141.39960236 729.94756805 -141.44447327 730.62889099 C-141.73600023 735.05690428 -142.02070411 739.48531105 -142.30078125 743.9140625 C-142.37240982 745.03497284 -142.44403839 746.15588318 -142.51783752 747.3107605 C-142.8396814 752.55169807 -143.08360607 757.7491651 -143 763 C-142.24831543 763.12528076 -141.49663086 763.25056152 -140.72216797 763.37963867 C-139.65627441 763.5572876 -138.59038086 763.73493652 -137.4921875 763.91796875 C-136.29376221 764.11769287 -135.09533691 764.31741699 -133.8605957 764.52319336 C-131.16119104 764.97308714 -128.46181277 765.42313891 -125.76245117 765.87329102 C-119.02824762 766.99617194 -112.29383125 768.11770786 -105.55859375 769.234375 C-98.71608954 770.3694881 -91.87473244 771.51133147 -85.03430176 772.65887451 C-83.64558929 772.89174322 -82.25683413 773.12435741 -80.86804199 773.35675049 C-63.31899746 776.29365917 -45.82186799 779.34810525 -28.38671875 782.91015625 C-5.78363379 787.51970862 17.02404011 790.44685713 39.9375 793 C85.26582841 798.05880349 85.26582841 798.05880349 98.8125 801.875 C100.24964355 802.26788208 100.24964355 802.26788208 101.71582031 802.66870117 C104.48133135 803.43192845 107.24062377 804.21494681 110 805 C111.11930908 805.30526611 111.11930908 805.30526611 112.26123047 805.61669922 C120.60950685 807.89350187 128.41187005 810.90871872 136.25 814.5625 C137.46671387 815.12674683 137.46671387 815.12674683 138.70800781 815.70239258 C142.74257813 817.65010146 146.17970255 819.39628659 149 823 C149.375 825.625 149.375 825.625 149 828 C146.45707711 830.54292289 145.46429802 830.297619 141.9375 830.3125 C136.50262484 830.23362978 131.99593068 829.07238606 127 827 C128.010625 827.845625 129.02125 828.69125 130.0625 829.5625 C143.50398827 841.12272521 143.50398827 841.12272521 144.27734375 847.16796875 C144.41819365 850.62160834 144.36601392 853.22730394 142.875 856.375 C137.75556047 860.81184759 133.51222648 861.42703124 127 861 C126.01 860.67 125.02 860.34 124 860 C124.33 861.98 124.66 863.96 125 866 C119.48365375 869.46159983 114.57554532 869.61370713 108.25 869.625 C107.20884033 869.62806152 106.16768066 869.63112305 105.0949707 869.63427734 C94.54822601 869.40337832 84.95164297 866.79143442 74.91796875 863.7265625 C64.41970935 860.5690954 54.56293011 859.73229788 43.625 859.5625 C28.18870534 859.18182455 13.04499408 858.05145073 -1.8203125 853.62890625 C-15.18048555 849.77408929 -30.90338214 852.02961022 -44.65625 852.8359375 C-46.25433225 852.92611379 -47.85243687 853.01589443 -49.45056152 853.10531616 C-54.634091 853.39701794 -59.81707187 853.69782611 -65 854 C-66.79947856 854.10470611 -68.59895773 854.20940166 -70.3984375 854.31408691 C-73.15671543 854.47460933 -75.91498871 854.63520974 -78.67324829 854.79604721 C-86.34489763 855.24306082 -94.0169113 855.68353575 -101.68917847 856.11981583 C-106.57021596 856.39786221 -111.45089364 856.68057766 -116.33105469 856.97363281 C-137.96219464 858.26863194 -159.54514787 859.2272802 -181.21875 859.2734375 C-182.59408653 859.28029005 -182.59408653 859.28029005 -183.99720764 859.28728104 C-226.32418626 859.4401748 -226.32418626 859.4401748 -237.18359375 849.01953125 C-245.04841303 840.2752053 -248.19827721 831.04941735 -249.5625 819.5625 C-249.67529297 818.71107422 -249.78808594 817.85964844 -249.90429688 816.98242188 C-250.32062567 813.6587691 -250.66733586 810.33318428 -251 807 C-251.08398041 806.15930969 -251.16796082 805.31861938 -251.25448608 804.45245361 C-252.89693163 787.52821108 -253.28892219 770.74536064 -253.1875 753.75 C-253.17725784 751.19628934 -253.16708599 748.6425784 -253.15698242 746.08886719 C-253.12835239 740.05988983 -253.08265369 734.03122301 -253.0267334 728.00244141 C-253.00422288 725.47427432 -252.98713023 722.94619515 -252.97363281 720.41796875 C-252.77549314 694.53682863 -249.59238964 668.72621019 -247 643 C-248.04333496 642.68329346 -249.08666992 642.36658691 -250.16162109 642.0402832 C-257.77610459 639.70886411 -265.30228778 637.34107679 -272.625 634.1875 C-273.417854 633.8469458 -274.21070801 633.5063916 -275.02758789 633.15551758 C-286.43936653 628.15200661 -296.15581854 622.4072746 -305.14453125 613.71484375 C-307.79522583 611.19468954 -310.51445507 608.90090801 -313.375 606.625 C-325.0335983 597.16708812 -335.27567427 587.24353632 -344 575 C-344.74660889 573.95320068 -344.74660889 573.95320068 -345.50830078 572.88525391 C-352.69036574 562.70072117 -358.82125542 552.33231168 -364 541 C-364.43441406 540.06929687 -364.86882812 539.13859375 -365.31640625 538.1796875 C-392.30788123 477.0702755 -391.44335027 405.98939926 -376 342 C-375.76555176 341.01547852 -375.53110352 340.03095703 -375.28955078 339.01660156 C-368.17878751 309.7003849 -356.01104761 283.47320429 -340.60986328 257.69970703 C-339.25682835 255.43069577 -337.91818644 253.15459731 -336.58984375 250.87109375 C-320.74751656 223.77878714 -302.01800854 197.76740198 -281.546875 173.98046875 C-279.14605739 171.17092299 -276.81648336 168.31667524 -274.5 165.4375 C-266.79067187 156.00746067 -258.40000404 147.31190175 -249.8125 138.6875 C-249.06427979 137.93460693 -248.31605957 137.18171387 -247.54516602 136.40600586 C-243.41992032 132.29259209 -239.1971389 128.36764225 -234.78393555 124.56567383 C-232.41046493 122.48259362 -230.20242935 120.26195447 -228 118 C-221.41259816 111.23456027 -214.16408962 105.23764899 -206.875 99.25 C-206.13781738 98.64365723 -205.40063477 98.03731445 -204.64111328 97.41259766 C-199.53102363 93.22300681 -194.37355948 89.10030908 -189.16064453 85.03955078 C-186.22860282 82.75517897 -183.31404372 80.45379476 -180.4296875 78.109375 C-172.37820242 71.57090623 -164.13070893 65.39590261 -155.69140625 59.3671875 C-150.81635059 55.88222441 -146.00191411 52.31801366 -141.1875 48.75 C-112.95822088 27.90951654 -81.43492492 5.31643613 -48 -6 C-47.07703125 -6.3196875 -46.1540625 -6.639375 -45.203125 -6.96875 C-29.18797902 -11.9676973 -14.00569087 -8.5752436 0 0 Z " fill="#EE855F" transform="translate(579,67)"/>
<path d="M0 0 C8.30160253 6.07768699 14.12764847 14.03924029 16.125 24.25 C16.90022922 33.99755425 15.52404091 42.11507756 12.125 51.25 C12.76566406 51.22679687 13.40632813 51.20359375 14.06640625 51.1796875 C14.93136719 51.16164063 15.79632812 51.14359375 16.6875 51.125 C17.95787109 51.09019531 17.95787109 51.09019531 19.25390625 51.0546875 C31.46023804 51.88505021 43.05646393 60.52188623 52.125 68.25 C52.93453125 68.90355469 53.7440625 69.55710937 54.578125 70.23046875 C67.78076802 81.34741816 81.47127787 102.000587 83.50512695 119.52539062 C83.66172047 123.08934772 83.67927419 126.62057186 83.625 130.1875 C83.60796021 132.09523193 83.60796021 132.09523193 83.59057617 134.04150391 C83.37107108 144.81016551 82.00536218 154.88498807 79.125 165.25 C78.94839844 165.90532715 78.77179688 166.5606543 78.58984375 167.23583984 C73.92746779 184.04197836 65.95327192 199.63075424 55.125 213.25 C54.46886719 214.08917969 53.81273437 214.92835938 53.13671875 215.79296875 C42.98510614 228.00432885 27.79791713 237.90500866 11.72998047 239.4855957 C-5.65230784 240.41913257 -18.21239242 237.06736307 -31.41308594 225.57617188 C-40.96414229 216.91195375 -48.39652187 206.73159798 -51.875 194.25 C-52.49761719 194.44335938 -53.12023437 194.63671875 -53.76171875 194.8359375 C-60.7751798 196.81183587 -67.58534235 197.72136165 -74.83203125 198.3515625 C-75.80064087 198.43962158 -76.76925049 198.52768066 -77.76721191 198.6184082 C-80.13612835 198.83316659 -82.50534385 199.04359237 -84.875 199.25 C-87.90586255 226.42299239 -90.40323136 253.59387547 -92.1875 280.875 C-92.23105118 281.53628403 -92.27460236 282.19756805 -92.31947327 282.87889099 C-92.61100023 287.30690428 -92.89570411 291.73531105 -93.17578125 296.1640625 C-93.24740982 297.28497284 -93.31903839 298.40588318 -93.39283752 299.5607605 C-93.7146814 304.80169807 -93.95860607 309.9991651 -93.875 315.25 C-93.12331543 315.37528076 -92.37163086 315.50056152 -91.59716797 315.62963867 C-90.53127441 315.8072876 -89.46538086 315.98493652 -88.3671875 316.16796875 C-87.16876221 316.36769287 -85.97033691 316.56741699 -84.7355957 316.77319336 C-82.03619104 317.22308714 -79.33681277 317.67313891 -76.63745117 318.12329102 C-69.90324762 319.24617194 -63.16883125 320.36770786 -56.43359375 321.484375 C-49.59108954 322.6194881 -42.74973244 323.76133147 -35.90930176 324.90887451 C-34.52058929 325.14174322 -33.13183413 325.37435741 -31.74304199 325.60675049 C-14.19399746 328.54365917 3.30313201 331.59810525 20.73828125 335.16015625 C43.34136621 339.76970862 66.14904011 342.69685713 89.0625 345.25 C134.39082841 350.30880349 134.39082841 350.30880349 147.9375 354.125 C148.8955957 354.38692139 149.85369141 354.64884277 150.84082031 354.91870117 C153.60633135 355.68192845 156.36562377 356.46494681 159.125 357.25 C159.87120605 357.45351074 160.61741211 357.65702148 161.38623047 357.86669922 C169.73450685 360.14350187 177.53687005 363.15871872 185.375 366.8125 C186.59171387 367.37674683 186.59171387 367.37674683 187.83300781 367.95239258 C191.86757813 369.90010146 195.30470255 371.64628659 198.125 375.25 C198.5 377.875 198.5 377.875 198.125 380.25 C195.58207711 382.79292289 194.58929802 382.547619 191.0625 382.5625 C185.62762484 382.48362978 181.12093068 381.32238606 176.125 379.25 C177.135625 380.095625 178.14625 380.94125 179.1875 381.8125 C192.62898827 393.37272521 192.62898827 393.37272521 193.40234375 399.41796875 C193.54319365 402.87160834 193.49101392 405.47730394 192 408.625 C186.88056047 413.06184759 182.63722648 413.67703124 176.125 413.25 C175.135 412.92 174.145 412.59 173.125 412.25 C173.455 414.23 173.785 416.21 174.125 418.25 C168.60865375 421.71159983 163.70054532 421.86370713 157.375 421.875 C156.33384033 421.87806152 155.29268066 421.88112305 154.2199707 421.88427734 C143.67322601 421.65337832 134.07664297 419.04143442 124.04296875 415.9765625 C113.54470935 412.8190954 103.68793011 411.98229788 92.75 411.8125 C77.31370534 411.43182455 62.16999408 410.30145073 47.3046875 405.87890625 C33.94451445 402.02408929 18.22161786 404.27961022 4.46875 405.0859375 C2.87066775 405.17611379 1.27256313 405.26589443 -0.32556152 405.35531616 C-5.509091 405.64701794 -10.69207187 405.94782611 -15.875 406.25 C-17.67447856 406.35470611 -19.47395773 406.45940166 -21.2734375 406.56408691 C-24.03171543 406.72460933 -26.78998871 406.88520974 -29.54824829 407.04604721 C-37.21989763 407.49306082 -44.8919113 407.93353575 -52.56417847 408.36981583 C-57.44521596 408.64786221 -62.32589364 408.93057766 -67.20605469 409.22363281 C-88.83719464 410.51863194 -110.42014787 411.4772802 -132.09375 411.5234375 C-133.01064102 411.52800587 -133.92753204 411.53257423 -134.87220764 411.53728104 C-177.19918626 411.6901748 -177.19918626 411.6901748 -188.05859375 401.26953125 C-195.92341303 392.5252053 -199.07327721 383.29941735 -200.4375 371.8125 C-200.55029297 370.96107422 -200.66308594 370.10964844 -200.77929688 369.23242188 C-201.19562567 365.9087691 -201.54233586 362.58318428 -201.875 359.25 C-201.95898041 358.40930969 -202.04296082 357.56861938 -202.12948608 356.70245361 C-203.77193163 339.77821108 -204.16392219 322.99536064 -204.0625 306 C-204.05225784 303.44628934 -204.04208599 300.8925784 -204.03198242 298.33886719 C-204.00335239 292.30988983 -203.95765369 286.28122301 -203.9017334 280.25244141 C-203.87922288 277.72427432 -203.86213023 275.19619515 -203.84863281 272.66796875 C-203.65049314 246.78682863 -200.46738964 220.97621019 -197.875 195.25 C-198.91833496 194.93329346 -199.96166992 194.61658691 -201.03662109 194.2902832 C-208.65110459 191.95886411 -216.17728778 189.59107679 -223.5 186.4375 C-224.292854 186.0969458 -225.08570801 185.7563916 -225.90258789 185.40551758 C-242.70849456 178.03694332 -256.7649152 170.04287283 -263.9375 152.5 C-270.73185076 134.66853797 -275.88848091 111.26667818 -268.1953125 92.89453125 C-267.54175781 91.58548828 -267.54175781 91.58548828 -266.875 90.25 C-266.12863281 88.67798828 -266.12863281 88.67798828 -265.3671875 87.07421875 C-257.20143656 70.91362793 -245.77448273 57.12266648 -229.875 48.25 C-228.81539063 47.65316406 -227.75578125 47.05632813 -226.6640625 46.44140625 C-211.58430961 38.41842559 -196.06812986 33.60669027 -178.9375 37.3125 C-175.22277856 38.4538347 -173.13593087 39.66899066 -170.5625 42.5625 C-166.31211401 47.30711692 -161.06187356 49.05494079 -155.22021484 51.33105469 C-136.16593798 58.7972527 -119.50707352 65.681822 -104.875 80.25 C-104.20597656 80.88421875 -103.53695312 81.5184375 -102.84765625 82.171875 C-94.71676199 90.50558069 -89.95273452 102.69410583 -86.76171875 113.69921875 C-84.92936548 118.97026142 -82.87337969 121.68326449 -77.875 124.25 C-77.92140625 123.31800781 -77.9678125 122.38601563 -78.015625 121.42578125 C-78.42071874 107.11729176 -75.31756937 94.57928466 -65.44775391 83.67285156 C-62.0334825 80.08148026 -58.46831051 76.66085751 -54.875 73.25 C-53.53725169 71.92109631 -52.20198423 70.58965234 -50.875 69.25 C-51.45507812 68.63253906 -52.03515625 68.01507812 -52.6328125 67.37890625 C-62.01012602 57.21241288 -69.75928422 47.0747254 -70.375 32.6875 C-69.92792959 22.66446976 -65.74266488 14.42663958 -58.875 7.25 C-42.59020692 -7.6128361 -19.21170718 -11.91777089 0 0 Z " fill="#EE865F" transform="translate(529.875,514.75)"/>
<path d="M0 0 C8.06449923 -0.15505114 15.88163599 0.2498962 23.88671875 1.20703125 C24.98683792 1.3330925 26.08695709 1.45915375 27.22041321 1.58903503 C30.71021046 1.99051368 34.19882823 2.4013689 37.6875 2.8125 C39.97453893 3.07678222 42.26164801 3.34045807 44.54882812 3.60351562 C56.87759038 5.02654099 69.20000772 6.50131119 81.52139282 7.98664856 C88.86395526 8.86965432 96.20962009 9.70709549 103.5625 10.5 C113.43716701 11.57467061 123.29317963 12.75615898 133.13696289 14.0859375 C137.31425534 14.63161489 141.21912317 15.04119085 145.4296875 14.79296875 C149 15 149 15 151.21484375 16.9765625 C152.06755859 18.28753906 152.06755859 18.28753906 152.9375 19.625 C157.0683976 25.31305235 161.43654379 29.93757035 168.5 31.58203125 C171.35257417 31.92488872 174.13135754 32 177 32 C177.66 27.71 178.32 23.42 179 19 C245.86586345 28.33012048 245.86586345 28.33012048 258.8125 43.0625 C262.12148293 48.46136689 261.61813939 54.90152723 261 61 C255.53645518 71.53683644 240.5499994 75.62444581 230 79 C229.3601416 79.20866699 228.7202832 79.41733398 228.06103516 79.63232422 C223.39309262 81.15375331 218.70589984 82.60062654 214 84 C212.35257813 84.49113281 212.35257813 84.49113281 210.671875 84.9921875 C202.11463798 87.4001542 193.44802677 89.24122619 184.75 91.0625 C183.58509033 91.30798584 182.42018066 91.55347168 181.2199707 91.80639648 C161.71349036 95.81292258 142.02816385 98.20745619 122.25 100.4375 C121.57781811 100.51334194 120.90563622 100.58918388 120.21308517 100.66732407 C31.70449076 110.6310829 -57.34708477 111.67251113 -179.12567139 108.13604736 C-182.78439144 108.00757111 -186.44320831 107.8822559 -190.10205078 107.75732422 C-215.43097054 106.8787608 -240.67601365 105.47364743 -265.91827393 103.18817139 C-267.92038666 103.00719641 -269.9228342 102.82993717 -271.92529297 102.65283203 C-310.60473818 99.19042619 -349.46074238 94.33640838 -387.1875 84.9375 C-388.45706543 84.62127686 -389.72663086 84.30505371 -391.03466797 83.97924805 C-402.66065957 80.98481409 -414.2665639 77.52076384 -425.25 72.625 C-425.90838867 72.33318848 -426.56677734 72.04137695 -427.24511719 71.74072266 C-435.71037167 67.88744437 -444.65880343 63.68239313 -449 55 C-450.21775077 40.45657648 -450.21775077 40.45657648 -447 36.375 C-446.01 35.59125 -445.02 34.8075 -444 34 C-443.48824219 33.59007812 -442.97648438 33.18015625 -442.44921875 32.7578125 C-423.11123698 18.95109381 -393.69824102 15.78505484 -371 12 C-370.30142883 11.88155731 -369.60285767 11.76311462 -368.88311768 11.64108276 C-356.70764727 9.58673431 -344.54151912 8.09185895 -332.25 6.9375 C-331.37667023 6.85350952 -330.50334045 6.76951904 -329.60354614 6.6829834 C-313.08966143 5.09642623 -296.56451257 3.90643312 -280 3 C-279.87471924 4.08829102 -279.74943848 5.17658203 -279.62036133 6.29785156 C-279.14416699 10.39286582 -278.64458535 14.48476248 -278.13842773 18.57617188 C-277.9238528 20.33648999 -277.71535714 22.09756151 -277.51342773 23.859375 C-275.76919327 39.01914119 -273.35098967 52.6704489 -261 63 C-258.05860388 64.60205638 -255.2751939 65.36716592 -252 66 C-251.21882812 66.18820312 -250.43765625 66.37640625 -249.6328125 66.5703125 C-236.53298539 69.54183878 -223.00934068 69.21514529 -209.65625 69.2109375 C-208.68058578 69.21139446 -207.70492157 69.21185143 -206.69969177 69.21232224 C-184.8925043 69.19593857 -163.18124569 68.10559251 -141.41906738 66.79876709 C-136.5324977 66.50787795 -131.64513421 66.23104038 -126.7578125 65.953125 C-119.13513606 65.51810004 -111.51275721 65.07824486 -103.890625 64.63378906 C-101.15666089 64.47460681 -98.42269253 64.31549796 -95.6887207 64.15644836 C-93.90079158 64.05241428 -92.11286837 63.94827866 -90.32495117 63.84403992 C-85.22174633 63.54695848 -80.11831179 63.2545879 -75.01445007 62.96900558 C-73.48059397 62.88245343 -71.94682468 62.79434407 -70.41316223 62.70442581 C-54.30466224 61.76144151 -39.10640052 61.30069661 -23.375 65.5 C-12.06802396 68.34109296 -0.87201906 69.02500453 10.73486328 69.23706055 C27.95045918 69.57091389 43.60536779 71.82270766 59.9375 77.3125 C70.3308357 80.46625174 85.92477187 81.54104359 96 77 C96 75.02 96 73.04 96 71 C96.71285156 71.04640625 97.42570313 71.0928125 98.16015625 71.140625 C104.76138526 71.38939271 108.6465383 70.95690648 114 67 C115.77096717 63.45806566 115.63173708 59.85855098 115 56 C110.92563435 47.68020754 102.15782465 41.54154167 95 36 C97.80143847 36.64552162 100.38464129 37.52639392 103.0625 38.5625 C108.32602373 40.35787831 113.48405444 40.51219494 119 40 C120.23836166 38.95657219 120.23836166 38.95657219 120.375 36.6875 C120.26584966 33.84888076 120.26584966 33.84888076 117.96484375 32.09375 C102.08152527 20.87707186 80.19121415 14.73856512 61.13623047 11.515625 C60.43127441 11.34546875 59.72631836 11.1753125 59 11 C58.67 10.34 58.34 9.68 58 9 C55.15412269 8.42704682 52.37520273 7.99354701 49.5 7.625 C48.60031494 7.5019751 47.70062988 7.3789502 46.77368164 7.25219727 C40.65759867 6.43170401 34.53134684 5.70398811 28.40234375 4.98828125 C27.29392624 4.85779388 27.29392624 4.85779388 26.16311646 4.72467041 C22.45097894 4.28780588 18.73828276 3.85903376 15.0234375 3.44580078 C13.63929124 3.28575548 12.25517525 3.12544811 10.87109375 2.96484375 C9.64318115 2.8268335 8.41526855 2.68882324 7.15014648 2.54663086 C4.28930011 2.05020096 2.51461953 1.34695117 0 0 Z " fill="#B8ACCA" transform="translate(607,856)"/>
<path d="M0 0 C8.30160253 6.07768699 14.12764847 14.03924029 16.125 24.25 C16.90022922 33.99755425 15.52404091 42.11507756 12.125 51.25 C12.76566406 51.22679687 13.40632812 51.20359375 14.06640625 51.1796875 C14.93136719 51.16164063 15.79632812 51.14359375 16.6875 51.125 C17.95787109 51.09019531 17.95787109 51.09019531 19.25390625 51.0546875 C31.46023804 51.88505021 43.05646393 60.52188623 52.125 68.25 C52.93453125 68.90355469 53.7440625 69.55710937 54.578125 70.23046875 C67.0421611 80.72549301 77.46444545 97.52062839 82.125 113.25 C82.16341438 114.91622391 82.1704893 116.58395423 82.125 118.25 C59.8562382 131.47355774 36.8479051 143.17112246 10.25 136.875 C6.96573248 135.96931063 4.99596101 135.163974 2.125 133.25 C1.31640625 130.60546875 1.31640625 130.60546875 0.6875 127.4375 C-0.37194606 122.81143711 -1.24869129 119.53634226 -4.875 116.25 C-10.32629524 114.43290159 -15.7504545 114.43108783 -21.0625 116.75 C-28.59763015 121.03438811 -32.64157238 129.13629194 -34.875 137.25 C-35.53671285 141.2440512 -36.05019918 145.1974241 -36.48046875 149.22265625 C-36.875 152.25 -36.875 152.25 -37.875 153.25 C-47.79518422 154.34824181 -55.48260157 151.87487352 -63.5625 146.1875 C-71.65543679 139.49829384 -77.0979099 129.6906377 -78.1875 119.2578125 C-78.69872729 105.93395131 -74.43469755 93.60368562 -65.44775391 83.67285156 C-62.0334825 80.08148026 -58.46831051 76.66085751 -54.875 73.25 C-53.53725169 71.92109631 -52.20198423 70.58965234 -50.875 69.25 C-51.45507812 68.63253906 -52.03515625 68.01507812 -52.6328125 67.37890625 C-62.01012602 57.21241288 -69.75928422 47.0747254 -70.375 32.6875 C-69.92792959 22.66446976 -65.74266488 14.42663958 -58.875 7.25 C-42.59020692 -7.6128361 -19.21170718 -11.91777089 0 0 Z " fill="#39303F" transform="translate(529.875,514.75)"/>
<path d="M0 0 C2.46138653 2.27745573 4.16966745 4.66173165 5.93359375 7.5078125 C6.49361084 8.40306641 7.05362793 9.29832031 7.63061523 10.22070312 C8.22688721 11.17912109 8.82315918 12.13753906 9.4375 13.125 C14.22759737 20.73967771 19.1423269 28.20725479 24.3840332 35.51733398 C28.55888272 41.34448407 32.60209457 47.2545934 36.625 53.1875 C40.61901529 59.07381092 44.63239006 64.93175481 48.8125 70.6875 C65.06888105 93.25070447 79.99446337 116.89567948 94.5234375 140.59472656 C95.82209572 142.71019957 97.12871303 144.82047629 98.4375 146.9296875 C111.06572157 167.43357414 122.02293342 189.3121146 130.125 212 C130.42051758 212.81863525 130.71603516 213.63727051 131.02050781 214.48071289 C132.84924389 219.81229356 134.19137026 224.37898542 131.75 229.75 C128.91607275 233.39362075 127.05713648 233.8489805 122.5 234.5 C105.8233554 233.91539438 89.33757692 215.19303522 78.71923828 203.90087891 C74.64151764 199.39233973 70.9903054 194.55372691 67.31494141 189.71728516 C52.93362363 170.93559388 37.61325395 163.67502111 15.06054688 157.53515625 C2.66526027 154.13753979 -8.72649622 150.80884172 -16.4375 139.75 C-20.41735705 132.74545159 -20.26815506 123.47777412 -18.47119141 115.71582031 C-16.30775372 108.38880994 -13.42766432 101.50315234 -9.66308594 94.859375 C-8.82263228 92.50263898 -9.15210672 91.32241206 -10 89 C-15.97781877 79.85536057 -23.92263914 71.54333695 -32.234375 64.5078125 C-34.62626106 62.46518414 -36.80404494 60.25085394 -39 58 C-40.43615213 56.5611534 -41.87374069 55.12373959 -43.3125 53.6875 C-44.54166667 52.45833333 -45.77083333 51.22916667 -47 50 C-45.7449384 46.23481519 -44.613723 45.91587465 -41.25 43.9375 C-29.8097521 36.87799386 -19.60864891 28.3667836 -10 19 C-9.46971191 18.49114258 -8.93942383 17.98228516 -8.39306641 17.45800781 C-6.79934798 15.91174145 -5.24000194 14.33754714 -3.6875 12.75 C-2.76324219 11.81671875 -1.83898437 10.8834375 -0.88671875 9.921875 C1.38047896 7.03770604 1.38047896 7.03770604 0.79296875 3.140625 C0.40044922 1.58601563 0.40044922 1.58601563 0 0 Z " fill="#314F5F" transform="translate(717,288)"/>
<path d="M0 0 C3.10413021 10.06041536 6.20117446 20.12298453 9.29109192 30.18777466 C11.12082095 36.1456316 12.95791711 42.10116313 14.79962158 48.05532837 C16.04716039 52.0935853 17.28888872 56.13361519 18.52947998 60.17401123 C19.12498383 62.1093487 19.72276528 64.04398713 20.32305908 65.97784424 C23.95906225 77.6973816 27.18624058 89.42214399 29.91113281 101.38793945 C30.89452628 105.66413483 32.069229 109.85463389 33.3125 114.0625 C39.80599802 136.69435436 44.28141974 160.12344923 48.49609375 183.27148438 C48.8383099 185.12449197 49.19562686 186.97476145 49.56640625 188.82226562 C50.72672371 194.73494717 51.31262824 200.35225114 51.25 206.375 C51.26160156 207.52548828 51.26160156 207.52548828 51.2734375 208.69921875 C51.25886611 212.91763619 50.93276846 216.14980252 49 220 C42.27798555 221.50902365 38.5029417 220.18688323 32.91015625 216.6953125 C23.45622586 210.01608575 17.0475726 200.43830155 11.7265625 190.328125 C11.3425528 189.6000766 10.95854309 188.8720282 10.56289673 188.12191772 C5.51325064 178.35476273 1.45152687 168.1560814 -2.703125 157.98583984 C-11.61067454 135.2522883 -11.61067454 135.2522883 -30.20043945 120.58935547 C-32.03839083 119.82255839 -33.88441214 119.07519796 -35.73046875 118.328125 C-45.87094952 114.20893329 -53.99914721 107.87292826 -59 98 C-60.92517739 92.22446782 -60.92996234 86.21557918 -58.25 80.6875 C-55.81625174 76.43484515 -52.94527431 72.92221884 -49.4375 69.5 C-45.47557204 65.43648414 -43.57037602 62.23374303 -43.5625 56.5 C-44.07095634 41.53685617 -51.67576005 29.61333892 -59 17 C-55.6301773 14.75345154 -52.3577644 13.82091807 -48.5078125 12.7578125 C-47.39513504 12.44334671 -47.39513504 12.44334671 -46.25997925 12.12252808 C-43.88302926 11.45167527 -41.50414634 10.78801707 -39.125 10.125 C-36.02278534 9.25491367 -32.92146897 8.38166177 -29.8203125 7.5078125 C-29.06461975 7.29578186 -28.308927 7.08375122 -27.53033447 6.86529541 C-21.91581936 5.28229268 -16.34555215 3.58038386 -10.79248047 1.79248047 C-7.23883457 0.7839882 -3.70593535 0 0 0 Z " fill="#314F5F" transform="translate(735,668)"/>
<path d="M0 0 C0.99 0.33 1.98 0.66 3 1 C3.33 3.64 3.66 6.28 4 9 C8.08715937 10.36238646 12.10082172 10.43123024 16.3828125 10.71875 C19 11 19 11 20 12 C20.55681457 20.44108206 19.6823938 28.89861662 18.88882446 37.29577637 C17.45050839 52.5968256 16.33207885 67.91598699 15.3125 83.25 C15.21284439 84.72821732 15.21284439 84.72821732 15.11117554 86.23629761 C14.92148741 89.05839121 14.73539042 91.88069504 14.55078125 94.703125 C14.49467682 95.54027542 14.43857239 96.37742584 14.38076782 97.23994446 C14.08641671 101.83832182 13.94565912 106.39220205 14 111 C14.75168457 111.12528076 15.50336914 111.25056152 16.27783203 111.37963867 C17.34372559 111.5572876 18.40961914 111.73493652 19.5078125 111.91796875 C21.30545044 112.21755493 21.30545044 112.21755493 23.1394043 112.52319336 C25.83880896 112.97308714 28.53818723 113.42313891 31.23754883 113.87329102 C37.97175238 114.99617194 44.70616875 116.11770786 51.44140625 117.234375 C58.28391046 118.3694881 65.12526756 119.51133147 71.96569824 120.65887451 C73.35441071 120.89174322 74.74316587 121.12435741 76.13195801 121.35675049 C93.68100254 124.29365917 111.17813201 127.34810525 128.61328125 130.91015625 C151.21636621 135.51970862 174.02404011 138.44685713 196.9375 141 C242.26582841 146.05880349 242.26582841 146.05880349 255.8125 149.875 C256.7705957 150.13692139 257.72869141 150.39884277 258.71582031 150.66870117 C261.48133135 151.43192845 264.24062377 152.21494681 267 153 C267.74620605 153.20351074 268.49241211 153.40702148 269.26123047 153.61669922 C277.60950685 155.89350187 285.41187005 158.90871872 293.25 162.5625 C294.46671387 163.12674683 294.46671387 163.12674683 295.70800781 163.70239258 C299.74257813 165.65010146 303.17970255 167.39628659 306 171 C306.375 173.625 306.375 173.625 306 176 C303.45707711 178.54292289 302.46429802 178.297619 298.9375 178.3125 C293.50262484 178.23362978 288.99593068 177.07238606 284 175 C284.70576172 175.58007812 284.70576172 175.58007812 285.42578125 176.171875 C288.6817612 178.89530336 291.65453533 181.41281874 294 185 C293.67 185.66 293.34 186.32 293 187 C293.99 187.33 294.98 187.66 296 188 C296 189.65 296 191.3 296 193 C291.84083462 191.43187891 287.92742796 189.48227627 283.98828125 187.4375 C270.47334631 180.49908994 257.01710394 173.62323544 242.8125 168.1875 C241.83128174 167.81044922 240.85006348 167.43339844 239.83911133 167.04492188 C236.91165087 165.96370819 233.96354316 164.97749998 231 164 C229.52430542 163.44143311 229.52430542 163.44143311 228.01879883 162.87158203 C215.50698634 158.72273008 202.40655849 159.48751371 189.38284302 159.50143433 C182.03595801 159.50617081 174.6898661 159.41538084 167.34375 159.31640625 C166.2570637 159.30206386 166.2570637 159.30206386 165.14842415 159.28743172 C147.98223941 159.04789655 131.14685634 157.55696681 114.12719727 155.39239502 C108.36790401 154.66972939 102.6041405 153.98357402 96.84109688 153.29157448 C87.31749777 152.14798907 77.79452022 151.00037205 68.27563477 149.81811523 C54.24530842 148.07883033 40.22024741 146.46370938 26.13821411 145.19830322 C20.85500347 144.70832531 15.58412588 144.09989297 10.3125 143.5 C8.03125065 143.24348379 5.75000065 142.9869734 3.46875 142.73046875 C1.83292969 142.54556885 1.83292969 142.54556885 0.1640625 142.35693359 C-4.4524643 141.83614947 -9.06995358 141.32414991 -13.6875 140.8125 C-15.12891188 140.65239444 -16.57031882 140.49224435 -18.01171875 140.33203125 C-18.99785156 140.22246094 -19.98398437 140.11289062 -21 140 C-21.1517733 132.90817325 -20.57052721 126.0871251 -19.71484375 119.05078125 C-19.57856567 117.90042389 -19.4422876 116.75006653 -19.30187988 115.56484985 C-18.85423444 111.81316517 -18.39703257 108.06274627 -17.9375 104.3125 C-17.78105011 103.02755646 -17.62460022 101.74261292 -17.46340942 100.41873169 C-6.87182871 13.74365741 -6.87182871 13.74365741 0 0 Z " fill="#ED855F" transform="translate(422,719)"/>
<path d="M0 0 C1.91943359 0.09082031 1.91943359 0.09082031 4 1 C5.24853516 3.38574219 5.24853516 3.38574219 6.2890625 6.546875 C6.67320312 7.70316406 7.05734375 8.85945312 7.453125 10.05078125 C8.03320312 11.88189453 8.03320312 11.88189453 8.625 13.75 C9.01945312 14.92433594 9.41390625 16.09867188 9.8203125 17.30859375 C13.96370042 30.03271409 15.34800787 42.09364311 15.3125 55.4375 C15.32861328 56.64470703 15.34472656 57.85191406 15.36132812 59.09570312 C15.36602966 67.88286975 15.01024367 77.97951265 11 86 C17.6 86 24.2 86 31 86 C31 91.28 31 96.56 31 102 C15.81510015 101.15639445 15.81510015 101.15639445 13 99 C12.4609375 97.08984375 12.4609375 97.08984375 12.375 94.9375 C12.25125 93.638125 12.1275 92.33875 12 91 C11.34 90.67 10.68 90.34 10 90 C7.28867398 101.0503047 4.94124022 112.09116017 3.0625 123.3125 C2.93649414 124.05799103 2.81048828 124.80348206 2.68066406 125.57156372 C-3.15938031 160.21815489 -7.08693097 195.09209028 -11 230 C-9.25541504 230.08652832 -9.25541504 230.08652832 -7.47558594 230.17480469 C1.30305835 230.6256972 10.01944145 231.19955324 18.75 232.25 C21.0975407 232.52183305 23.44520715 232.79258144 25.79296875 233.0625 C27.0876709 233.21203125 28.38237305 233.3615625 29.71630859 233.515625 C34.45020189 234.0557717 39.18779502 234.55973201 43.92578125 235.0625 C68.54243539 237.68180419 93.12305757 240.53369259 117.68969727 243.58886719 C124.45605613 244.4260912 131.22558848 245.23063565 138 246 C138.95610168 246.10920776 139.91220337 246.21841553 140.89727783 246.33093262 C160.00438883 248.44306537 179.16281117 248.35883898 198.36083984 248.38085938 C201.93432985 248.38593518 205.50728863 248.41044389 209.08059692 248.44618607 C211.0470883 248.46037533 213.0136975 248.45344718 214.98022461 248.44564819 C228.82057535 248.59537992 241.13307617 252.68740978 253.9375 257.75 C255.10684082 258.21027588 256.27618164 258.67055176 257.48095703 259.14477539 C267.34428953 263.09919562 276.88013538 267.67421093 286.375 272.4375 C287.06649139 272.78397583 287.75798279 273.13045166 288.47042847 273.48742676 C294.86194535 276.70412176 301.0990754 279.93817278 307 284 C306.67 285.65 306.34 287.3 306 289 C301.74137906 288.41715954 298.89787147 286.92344152 295.25 284.6875 C281.27234837 276.42893977 266.358478 269.48203454 251.25 263.5625 C250.52159912 263.26923828 249.79319824 262.97597656 249.04272461 262.67382812 C246.38734258 261.67396732 243.71491536 260.82651447 241 260 C240.34174225 259.79180634 239.6834845 259.58361267 239.00527954 259.36911011 C223.72895139 254.67479441 208.78552083 254.35694684 192.91867065 254.42462158 C185.7110287 254.45381253 178.50400724 254.38111221 171.296875 254.30078125 C170.58648512 254.2933213 169.87609524 254.28586136 169.14417839 254.27817535 C156.847055 254.13868896 144.66435391 253.47667565 132.4375 252.125 C131.69656097 252.04345673 130.95562195 251.96191345 130.19223022 251.87789917 C125.12094518 251.30655841 120.0603444 250.66039755 115 250 C92.90725453 247.13021241 70.76568671 244.71622011 48.62237549 242.27496338 C40.53962107 241.38354357 32.4571874 240.48922132 24.37476921 239.59475899 C21.59403663 239.28730896 18.81320919 238.98072976 16.03236389 238.67430115 C11.82958711 238.21074022 7.62735239 237.7425256 3.42546463 237.27097702 C1.77790736 237.08690913 0.13016111 236.90452652 -1.51774979 236.72365189 C-3.91863718 236.45987862 -6.31885472 236.19064913 -8.71899414 235.92016602 C-9.44271178 235.84190803 -10.16642942 235.76365004 -10.9120779 235.68302059 C-15.88600024 235.11399976 -15.88600024 235.11399976 -17 234 C-17.63635306 225.58550086 -16.48997544 217.19505083 -15.4609375 208.859375 C-15.29758001 207.50115527 -15.13466248 206.14288257 -14.97215271 204.78456116 C-14.53878481 201.1812119 -14.09613809 197.5790674 -13.6503334 193.9772377 C-13.37377468 191.74008807 -13.09928667 189.50269264 -12.82528687 187.26522827 C-8.3727439 150.95818783 -3.58101189 114.98314849 6.03320312 79.61914062 C12.03909339 57.37332307 8.80536676 34.68345583 1.33764648 13.19482422 C1.03673096 12.32615723 0.73581543 11.45749023 0.42578125 10.5625 C0.15161377 9.80066406 -0.12255371 9.03882813 -0.4050293 8.25390625 C-1.06984541 5.73540712 -1.17270144 3.59413693 -1 1 C-0.67 0.67 -0.34 0.34 0 0 Z " fill="#343A4C" transform="translate(412,629)"/>
<path d="M0 0 C2.19116489 1.88019171 3.41713148 3.54382471 5 6 C-2.52152318 5.10761589 -2.52152318 5.10761589 -5.2578125 4.4921875 C-24.912639 0.96439813 -43.56493393 7.75478616 -59.66796875 18.8359375 C-74.7220305 30.2723565 -86.34929863 46.83554816 -90.8125 65.375 C-91.93389933 87.05538706 -86.76305585 107.00719859 -76.45239258 126.05029297 C-75.58289785 127.6733778 -74.78412702 129.33399572 -74 131 C-74.33 131.66 -74.66 132.32 -75 133 C-87.95906365 124.72134974 -92.59891263 108.93252913 -96.0625 94.625 C-98.33498512 80.63209503 -99.45911666 63.93734313 -93 51 C-92.50242187 49.95199219 -92.00484375 48.90398438 -91.4921875 47.82421875 C-83.32643656 31.66362793 -71.89948273 17.87266648 -56 9 C-54.94039063 8.40316406 -53.88078125 7.80632813 -52.7890625 7.19140625 C-37.05012956 -1.18228233 -17.30343106 -8.06115474 0 0 Z " fill="#343B4D" transform="translate(356,554)"/>
<path d="M0 0 C0.99 0.33 1.98 0.66 3 1 C2.04867187 1.38091797 2.04867187 1.38091797 1.078125 1.76953125 C-1.91699227 3.54295595 -2.02162005 5.94674432 -3.00390625 9.1328125 C-8.46246882 24.84491024 -19.59168907 37.31758169 -33 47 C-33.66 47 -34.32 47 -35 47 C-34.98549805 47.8986377 -34.97099609 48.79727539 -34.95605469 49.72314453 C-34.87075121 59.16867724 -35.33781855 68.46678166 -36.25 77.875 C-36.3498671 78.92166336 -36.3498671 78.92166336 -36.45175171 79.98947144 C-38.66964651 102.84760682 -44.01417458 124.87304087 -59 143 C-60.32 142.67 -61.64 142.34 -63 142 C-62.43106116 137.52379001 -60.55919148 134.22105787 -58.25 130.4375 C-54.55169474 124.16649658 -51.52307208 117.84419551 -49 111 C-48.71511719 110.25234375 -48.43023437 109.5046875 -48.13671875 108.734375 C-44.1154612 96.93868619 -43.11173222 84.11929758 -42.49609375 71.75390625 C-42.35436275 69.25466303 -42.2099474 66.7555837 -42.06542969 64.25650024 C-41.98074543 62.59729881 -41.91359034 60.9371017 -41.86474609 59.27645874 C-41.46784834 45.83947852 -41.46784834 45.83947852 -37.83129883 41.28222656 C-35.31321724 39.27524653 -32.77747869 37.62181352 -30 36 C-20.33017084 27.58685179 -13.0728714 17.4107259 -5.55908203 7.11035156 C-3.76914547 4.68751854 -1.91136359 2.32812708 0 0 Z " fill="#333B4D" transform="translate(447,298)"/>
<path d="M0 0 C26.56663147 -1.65276279 57.24606013 12.54861945 79 27 C78.505 29.475 78.505 29.475 78 32 C74.17069199 31.43163004 71.60839578 30.34892125 68.37109375 28.25 C63.11970652 24.99567388 57.73390414 22.43387011 52.0625 20 C51.06903564 19.57138672 50.07557129 19.14277344 49.05200195 18.70117188 C34.27248939 12.44644159 19.12881736 7.36258338 3.03125 6.34375 C1 6 1 6 -1 4 C-0.625 1.875 -0.625 1.875 0 0 Z " fill="#34374A" transform="translate(635,893)"/>
<path d="M0 0 C5.90869454 0.06505755 11.46156109 1.07216076 17.22265625 2.3203125 C18.27477295 2.54549561 19.32688965 2.77067871 20.41088867 3.00268555 C28.692801 4.84444344 36.6061586 7.18774691 44.48291016 10.33007812 C46.05290906 10.95399336 47.62892322 11.56284624 49.20849609 12.16210938 C51.86852066 13.17130129 54.51522014 14.20978161 57.16015625 15.2578125 C57.99264893 15.57403564 58.8251416 15.89025879 59.68286133 16.21606445 C61.81242111 17.08943708 63.74818703 17.91342405 65.66015625 19.1953125 C66.69140625 21.94140625 66.69140625 21.94140625 66.66015625 24.1953125 C62.74934727 25.49891549 61.47466252 24.57539458 57.69921875 23.02734375 C56.50425781 22.54587891 55.30929687 22.06441406 54.078125 21.56835938 C52.81350159 21.04890805 51.54917947 20.52872261 50.28515625 20.0078125 C36.44018209 14.35064718 23.09959284 10.01016533 8.34765625 7.4453125 C7.11853516 7.22488281 5.88941406 7.00445313 4.62304688 6.77734375 C1.63661573 6.24280744 -1.35089919 5.71557576 -4.33984375 5.1953125 C-4.90234375 3.2578125 -4.90234375 3.2578125 -5.33984375 1.1953125 C-3.76092212 -0.38360913 -2.18985375 0.02041923 0 0 Z " fill="#31364A" transform="translate(632.33984375,904.8046875)"/>
<path d="M0 0 C1.32 0 2.64 0 4 0 C4.39260151 8.19999482 3.27562783 15.37151135 1.3125 23.3125 C-1.14078276 33.72315018 -3.16389246 44.13506255 -4.875 54.6875 C-4.98395599 55.35818512 -5.09291199 56.02887024 -5.20516968 56.71987915 C-5.81363434 60.4783359 -6.41156472 64.23835835 -7 68 C-8.65 68 -10.3 68 -12 68 C-12.19170324 61.08448325 -11.50294666 54.68115203 -10.3125 47.875 C-10.04783936 46.32196167 -10.04783936 46.32196167 -9.77783203 44.73754883 C-8.1688834 35.51853829 -6.21227676 26.3880845 -4.1484375 17.26171875 C-3.09275767 12.5748186 -2.24364173 7.86626421 -1.45166016 3.12817383 C-1 1 -1 1 0 0 Z " fill="#31374B" transform="translate(340,641)"/>
<path d="M0 0 C1.78985404 0.2922071 3.58027076 0.58097866 5.37109375 0.8671875 C7.3934571 1.20175008 9.4155833 1.53774862 11.4375 1.875 C12.50355469 2.05281006 13.56960938 2.23062012 14.66796875 2.41381836 C23.13447517 3.83576709 31.5697537 5.37777595 40 7 C44.66476164 7.88713457 49.33204014 8.76013189 54.00097656 9.625 C55.9478251 9.99021243 57.89193868 10.36991062 59.8359375 10.75 C69.54860867 12.60711887 79.28566501 13.75601728 89.11621094 14.80249023 C98.11637984 15.7678652 107.08983971 16.87252575 116.0625 18.0625 C117.92491333 18.30601196 117.92491333 18.30601196 119.82495117 18.55444336 C126.60938567 19.4641166 133.3104663 20.5443313 140 22 C140 22.33 140 22.66 140 23 C127.93728112 22.27497483 115.94742631 21.00286358 103.9375 19.6875 C102.41739319 19.5218454 102.41739319 19.5218454 100.86657715 19.35284424 C84.19878277 17.53067648 67.57875308 15.51969715 51 13 C50.16871582 12.87415527 49.33743164 12.74831055 48.48095703 12.61865234 C28.51930288 9.54859781 8.67353557 5.54982282 -11 1 C-7.2431329 -1.55466963 -4.20551613 -0.80849335 0 0 Z " fill="#E3DBE9" transform="translate(528,843)"/>
<path d="M0 0 C3.41709328 0.45518674 6.83358431 0.91475747 10.25 1.375 C11.19875 1.50132812 12.1475 1.62765625 13.125 1.7578125 C25.09038434 3.37475633 36.96217146 5.50264625 48.83959961 7.65942383 C51.08993881 8.06747545 53.3408575 8.47222697 55.59179688 8.87695312 C57.03128642 9.13781994 58.4707409 9.39888034 59.91015625 9.66015625 C61.20058838 9.89355713 62.49102051 10.12695801 63.82055664 10.36743164 C67 11 67 11 70 12 C70 12.66 70 13.32 70 14 C70.99 14.495 70.99 14.495 72 15 C62.53003294 14.42800199 53.23756995 13.25753848 43.875 11.75 C43.19233063 11.64150726 42.50966125 11.53301453 41.80630493 11.42123413 C31.74860544 9.82185844 21.70916667 8.12468192 11.6875 6.3125 C10.54974121 6.11043945 9.41198242 5.90837891 8.23974609 5.70019531 C6.67281006 5.40967285 6.67281006 5.40967285 5.07421875 5.11328125 C4.16244873 4.94610596 3.25067871 4.77893066 2.3112793 4.60668945 C0 4 0 4 -3 2 C-2.01 2 -1.02 2 0 2 C0 1.34 0 0.68 0 0 Z " fill="#E3D9E6" transform="translate(444,828)"/>
<path d="M0 0 C8.21582864 -0.09343813 16.43142851 -0.16413346 24.64766026 -0.20724869 C28.46443762 -0.22796108 32.28084664 -0.2559714 36.09741211 -0.30175781 C39.79331419 -0.34580984 43.48886618 -0.36925932 47.18501091 -0.37950897 C48.58216793 -0.38679567 49.97930982 -0.401018 51.37631416 -0.42292023 C61.64445208 -0.5772299 70.27374045 0.93139379 80 4 C79.34 5.32 78.68 6.64 78 8 C73.30290455 8.15151921 69.26067847 8.08322542 64.68359375 7.01367188 C58.17450655 5.6922705 51.74005106 5.6476855 45.1171875 5.5859375 C43.82177032 5.56657135 42.52635315 5.5472052 41.19168091 5.5272522 C37.78225576 5.47638525 34.37279159 5.43651966 30.9631958 5.39910889 C27.47016105 5.35878069 23.97728219 5.30782137 20.484375 5.2578125 C13.6563645 5.16159302 6.82825339 5.07701939 0 5 C0 4.67 0 4.34 0 4 C19.47 4 38.94 4 59 4 C59 3.01 59 2.02 59 1 C39.53 1 20.06 1 0 1 C0 0.67 0 0.34 0 0 Z " fill="#22314A" transform="translate(573,878)"/>
<path d="M0 0 C0.33 4.95 0.66 9.9 1 15 C-12.625 14.25 -12.625 14.25 -16 12 C-16.44140625 9.90625 -16.44140625 9.90625 -16.5625 7.5 C-16.66411746 3.80555416 -16.66411746 3.80555416 -19 1 C-16.20837429 0.83262201 -13.41670379 0.66606598 -10.625 0.5 C-9.8309375 0.45230469 -9.036875 0.40460937 -8.21875 0.35546875 C-2.2265625 0 -2.2265625 0 0 0 Z " fill="#4B4352" transform="translate(442,716)"/>
<path d="M0 0 C2.125 0.375 2.125 0.375 4 1 C4.28696755 4.97738828 4.52275681 8.95628836 4.75 12.9375 C4.83121094 14.05447266 4.91242187 15.17144531 4.99609375 16.32226562 C5.37241022 23.45137209 4.87582604 28.87672099 1 35 C0.34 35.66 -0.32 36.32 -1 37 C-1.63626083 28.02417763 -2.11431553 19.06236051 -2.1875 10.0625 C-2.20039062 9.28793457 -2.21328125 8.51336914 -2.2265625 7.71533203 C-2.22997859 5.80872813 -2.12403483 3.90256812 -2 2 C-1.34 1.34 -0.68 0.68 0 0 Z " fill="#393749" transform="translate(524,152)"/>
<path d="M0 0 C7.87012785 -0.20984417 15.40011721 0.39108468 23.1875 1.5 C24.75854492 1.71462891 24.75854492 1.71462891 26.36132812 1.93359375 C28.90853236 2.28252584 31.45461602 2.63806969 34 3 C34 4.32 34 5.64 34 7 C40.93 7.495 40.93 7.495 48 8 C48 8.33 48 8.66 48 9 C39.70000372 9.24735088 31.57212056 8.91326875 23.3125 8.125 C22.43948242 8.04652832 21.56646484 7.96805664 20.66699219 7.88720703 C19.84489258 7.80325684 19.02279297 7.71930664 18.17578125 7.6328125 C17.07617065 7.52283936 17.07617065 7.52283936 15.9543457 7.41064453 C14 7 14 7 11 5 C15.62 5 20.24 5 25 5 C25 4.34 25 3.68 25 3 C24.34926514 3.01571045 23.69853027 3.0314209 23.02807617 3.04760742 C20.08130576 3.10994649 17.13467402 3.14898684 14.1875 3.1875 C12.65125977 3.22520508 12.65125977 3.22520508 11.08398438 3.26367188 C9.60961914 3.27817383 9.60961914 3.27817383 8.10546875 3.29296875 C7.19949951 3.3086792 6.29353027 3.32438965 5.36010742 3.34057617 C2.57555794 2.93875073 1.72400465 2.16311438 0 0 Z " fill="#2B354B" transform="translate(522,873)"/>
<path d="M0 0 C2.08979799 4.17959597 2.25685766 6.0626895 2.265625 10.62890625 C2.26820313 11.91087891 2.27078125 13.19285156 2.2734375 14.51367188 C2.26924805 15.17810303 2.26505859 15.84253418 2.26074219 16.52709961 C2.25001644 18.55938445 2.26066373 20.59078904 2.2734375 22.62304688 C2.27085937 23.90373047 2.26828125 25.18441406 2.265625 26.50390625 C2.26224121 28.26456421 2.26224121 28.26456421 2.25878906 30.06079102 C2 33 2 33 0 36 C0 30.06 0 24.12 0 18 C-0.66 21.96 -1.32 25.92 -2 30 C-2.33 30 -2.66 30 -3 30 C-3 22.74 -3 15.48 -3 8 C-2.34 8.66 -1.68 9.32 -1 10 C-0.67 6.7 -0.34 3.4 0 0 Z " fill="#23344C" transform="translate(425,666)"/>
<path d="M0 0 C6.93 0.495 6.93 0.495 14 1 C14.33 2.65 14.66 4.3 15 6 C8.67370431 6.90375653 3.32629569 6.90375653 -3 6 C-2.505 5.566875 -2.01 5.13375 -1.5 4.6875 C0.33218192 3.00259517 0.33218192 3.00259517 0 0 Z " fill="#363A4B" transform="translate(460,865)"/>
<path d="M0 0 C2.25870108 3.38805161 2.29259413 4.77350741 2.4140625 8.76171875 C2.45273437 9.87998047 2.49140625 10.99824219 2.53125 12.15039062 C2.5621875 13.31763672 2.593125 14.48488281 2.625 15.6875 C2.66367187 16.86634766 2.70234375 18.04519531 2.7421875 19.25976562 C2.83654391 22.17301977 2.92213161 25.08626607 3 28 C1.35 28 -0.3 28 -2 28 C-1.8575483 25.02063784 -1.71112006 22.0415558 -1.5625 19.0625 C-1.52318359 18.23169922 -1.48386719 17.40089844 -1.44335938 16.54492188 C-1.16269231 10.99634986 -0.66239935 5.51628363 0 0 Z " fill="#E2DFEE" transform="translate(437,802)"/>
<path d="M0 0 C3.27030606 1.01223759 6.20441689 2.10613954 9.25 3.6875 C10.61125 4.3371875 10.61125 4.3371875 12 5 C12.66 4.67 13.32 4.34 14 4 C13.01 3.01 12.02 2.02 11 1 C15.61513112 2.31860889 19.09897612 4.21355437 23 7 C22.67 8.65 22.34 10.3 22 12 C18.10957984 11.42543617 15.44132504 10.28006931 12.125 8.1875 C11.26390625 7.65253906 10.4028125 7.11757813 9.515625 6.56640625 C8.68546875 6.04949219 7.8553125 5.53257812 7 5 C4.67798625 3.64549198 2.34030671 2.32278205 0 1 C0 0.67 0 0.34 0 0 Z " fill="#2D3348" transform="translate(691,913)"/>
<path d="M0 0 C2.86724686 0.57344937 3.8614515 0.8614515 6 3 C8.36564173 3.20595501 8.36564173 3.20595501 11.0625 3.0625 C16.1508233 2.96180759 20.95697555 3.33861974 26 4 C26 4.66 26 5.32 26 6 C9.19090909 9.12727273 9.19090909 9.12727273 3 5 C1.34450469 4.61500109 -0.3222433 4.27206865 -2 4 C-1.34 2.68 -0.68 1.36 0 0 Z " fill="#47404D" transform="translate(521,872)"/>
<path d="M0 0 C0.33 0 0.66 0 1 0 C1.06058594 1.08796875 1.12117188 2.1759375 1.18359375 3.296875 C1.66987024 11.87667089 2.22485071 20.44037272 3 29 C2.01 28.67 1.02 28.34 0 28 C0 29.65 0 31.3 0 33 C-3.2102122 29.7897878 -2.98974759 26.62539686 -3.0625 22.1875 C-3.041875 21.135625 -3.02125 20.08375 -3 19 C-2.34 19.66 -1.68 20.32 -1 21 C-0.67 14.07 -0.34 7.14 0 0 Z " fill="#24354D" transform="translate(263,620)"/>
<path d="M0 0 C3.85025879 0.60355408 6.86101159 1.76772603 10.3125 3.5625 C11.19550781 4.01753906 12.07851563 4.47257813 12.98828125 4.94140625 C13.65214844 5.29074219 14.31601562 5.64007812 15 6 C14.01 6.99 13.02 7.98 12 9 C18.435 12.465 18.435 12.465 25 16 C24.34 16.33 23.68 16.66 23 17 C20.56982422 16.01196289 20.56982422 16.01196289 17.5546875 14.47265625 C15.94013672 13.65571289 15.94013672 13.65571289 14.29296875 12.82226562 C13.16503906 12.24154297 12.03710938 11.66082031 10.875 11.0625 C9.73933594 10.48564453 8.60367188 9.90878906 7.43359375 9.31445312 C4.61870477 7.8833541 1.8078017 6.44494135 -1 5 C2.62326739 3.7922442 3.64146369 4.45688872 7 6 C4.83312509 3.72478134 2.54379491 1.84205838 0 0 Z " fill="#263148" transform="translate(682,895)"/>
<path d="M0 0 C0.33 0 0.66 0 1 0 C3.97840194 17.52829791 3.97840194 17.52829791 0.140625 24.43359375 C-1 26 -1 26 -3 28 C-3.08082094 26.04233719 -3.13910778 24.08373272 -3.1875 22.125 C-3.22230469 21.03445312 -3.25710938 19.94390625 -3.29296875 18.8203125 C-3.19628906 17.88960937 -3.09960938 16.95890625 -3 16 C-2.01 15.34 -1.02 14.68 0 14 C0.36558117 10.64496524 0.36558117 10.64496524 0.1875 6.875 C0.16042969 5.59367188 0.13335938 4.31234375 0.10546875 2.9921875 C0.05326172 1.51105469 0.05326172 1.51105469 0 0 Z " fill="#2C2F42" transform="translate(526,161)"/>
<path d="M0 0 C0.33 0 0.66 0 1 0 C1 1.98 1 3.96 1 6 C1.99 6 2.98 6 4 6 C4 4.35 4 2.7 4 1 C4.33 1 4.66 1 5 1 C5.22731216 7.93302093 4.42002108 14.2168636 3 21 C2.67 21 2.34 21 2 21 C1.87625 19.865625 1.7525 18.73125 1.625 17.5625 C1.41875 16.386875 1.2125 15.21125 1 14 C0.34 13.67 -0.32 13.34 -1 13 C-1.0272415 11.58344207 -1.04650467 10.16672955 -1.0625 8.75 C-1.07410156 7.96109375 -1.08570313 7.1721875 -1.09765625 6.359375 C-1.00385306 4.09308998 -0.63241063 2.1711105 0 0 Z " fill="#29384E" transform="translate(403,791)"/>
<path d="M0 0 C0.33 0 0.66 0 1 0 C1 8.25 1 16.5 1 25 C-0.32 24.34 -1.64 23.68 -3 23 C-2.979375 22.2575 -2.95875 21.515 -2.9375 20.75 C-2.99328688 18.29537721 -3.3069904 16.33890739 -4 14 C-3.67 14 -3.34 14 -3 14 C-2.01 9.38 -1.02 4.76 0 0 Z " fill="#44404E" transform="translate(425,680)"/>
<path d="M0 0 C0.33 0 0.66 0 1 0 C1 6.27 1 12.54 1 19 C0.01 19 -0.98 19 -2 19 C-3.18957518 15.36866525 -2.97368815 12.15951795 -2.6875 8.375 C-2.60886719 7.22773437 -2.53023438 6.08046875 -2.44921875 4.8984375 C-2 2 -2 2 0 0 Z " fill="#3F404E" transform="translate(262,622)"/>
<path d="M0 0 C-0.33 0.99 -0.66 1.98 -1 3 C-2.87387477 3.3396019 -4.74916697 3.67138691 -6.625 4 C-7.66914063 4.185625 -8.71328125 4.37125 -9.7890625 4.5625 C-12.90574865 4.98715797 -15.85930812 5.07545206 -19 5 C-19.33 4.01 -19.66 3.02 -20 2 C-17.79248152 1.66131223 -15.58394089 1.32928311 -13.375 1 C-12.14523437 0.814375 -10.91546875 0.62875 -9.6484375 0.4375 C-6.3833973 0.04597484 -3.28287549 -0.08080924 0 0 Z " fill="#48404D" transform="translate(440,862)"/>
<path d="M0 0 C12.66970387 -0.18451025 12.66970387 -0.18451025 18 1 C18 1.33 18 1.66 18 2 C14.7 2.33 11.4 2.66 8 3 C8 3.66 8 4.32 8 5 C6.25034642 5.05429959 4.50020213 5.09292823 2.75 5.125 C1.77546875 5.14820313 0.8009375 5.17140625 -0.203125 5.1953125 C-3.0196498 4.99862781 -4.60949036 4.44568916 -7 3 C-3.535 2.505 -3.535 2.505 0 2 C0 1.34 0 0.68 0 0 Z " fill="#25324A" transform="translate(416,861)"/>
<path d="M0 0 C6.86881304 5.36102481 12.38363121 11.61380993 17 19 C13.7 18.34 10.4 17.68 7 17 C7.66 15.68 8.32 14.36 9 13 C8.06558465 11.72689688 7.12732889 10.456612 6.1875 9.1875 C5.66542969 8.47980469 5.14335937 7.77210938 4.60546875 7.04296875 C3.06893533 4.99125475 3.06893533 4.99125475 1.30078125 3.36328125 C0 2 0 2 0 0 Z " fill="#E97E54" transform="translate(338,535)"/>
<path d="M0 0 C11.52164009 -0.18451025 11.52164009 -0.18451025 17 1 C17 1.33 17 1.66 17 2 C13.37 2.33 9.74 2.66 6 3 C6.33 3.66 6.66 4.32 7 5 C-3.55808656 5.18451025 -3.55808656 5.18451025 -8 4 C-8 3.67 -8 3.34 -8 3 C-3.545 2.505 -3.545 2.505 1 2 C0.67 1.34 0.34 0.68 0 0 Z " fill="#263349" transform="translate(435,863)"/>
<path d="M0 0 C0.99 0.33 1.98 0.66 3 1 C2.37222656 1.24105469 1.74445313 1.48210937 1.09765625 1.73046875 C-1.55077404 3.33333624 -1.77619051 4.37002111 -2.5625 7.3125 C-3.62187631 10.92136435 -4.87244189 13.85931898 -7 17 C-7.33 16.01 -7.66 15.02 -8 14 C-8.66 13.67 -9.32 13.34 -10 13 C-5.05 6.565 -5.05 6.565 0 0 Z " fill="#2A3348" transform="translate(447,298)"/>
<path d="M0 0 C0.33 0.66 0.66 1.32 1 2 C0.0625 4.625 0.0625 4.625 -1 7 C-0.38125 6.38125 0.2375 5.7625 0.875 5.125 C2.25 3.75 3.625 2.375 5 1 C4.39305845 4.15330554 3.3583335 6.18888867 1.4375 8.75 C0.75494141 9.67039062 0.75494141 9.67039062 0.05859375 10.609375 C-0.29074219 11.06828125 -0.64007813 11.5271875 -1 12 C-2.32 11.67 -3.64 11.34 -5 11 C-4.46884894 6.48521602 -2.63379708 3.65333143 0 0 Z " fill="#2C374D" transform="translate(389,429)"/>
<path d="M0 0 C4.75 1.875 4.75 1.875 7 3 C6.67 4.65 6.34 6.3 6 8 C1.48521602 7.46884894 -1.34666857 5.63379708 -5 3 C-4.34 2.67 -3.68 2.34 -3 2 C-0.875 2.9375 -0.875 2.9375 1 4 C0.67 2.68 0.34 1.36 0 0 Z " fill="#2C3248" transform="translate(712,910)"/>
<path d="M0 0 C-0.33 0.99 -0.66 1.98 -1 3 C-5.95 3.33 -10.9 3.66 -16 4 C-13 2 -13 2 -11 2 C-11 1.34 -11 0.68 -11 0 C-3.57142857 -1.28571429 -3.57142857 -1.28571429 0 0 Z " fill="#413F4D" transform="translate(492,869)"/>
<path d="M0 0 C0.33 0 0.66 0 1 0 C1.33 3.63 1.66 7.26 2 11 C0.02 11.33 -1.96 11.66 -4 12 C-3.45660208 7.43545749 -2.20536179 4.0271824 0 0 Z " fill="#DDD5E8" transform="translate(528,179)"/>
<path d="M0 0 C0.66 0.33 1.32 0.66 2 1 C-0.07818044 2.9640607 -2.16214565 4.92126906 -4.25 6.875 C-4.83652344 7.43058594 -5.42304688 7.98617187 -6.02734375 8.55859375 C-6.88779297 9.36103516 -6.88779297 9.36103516 -7.765625 10.1796875 C-8.28930664 10.67194824 -8.81298828 11.16420898 -9.35253906 11.67138672 C-12.24449666 14.00363824 -14.25528833 15 -18 15 C-12.19825584 9.71945272 -6.25677351 4.73325656 0 0 Z " fill="#F17D4E" transform="translate(385,156)"/>
<path d="M0 0 C1 2 1 2 0.875 3.875 C-0.36108073 6.87691034 -2.44456942 8.0253491 -5 10 C-6.76079287 11.93734933 -8.36871486 13.94924153 -10 16 C-10.66 15.67 -11.32 15.34 -12 15 C-10.18829771 12.68687105 -8.37567861 10.37447123 -6.5625 8.0625 C-6.04623047 7.40314453 -5.52996094 6.74378906 -4.99804688 6.06445312 C-4.50498047 5.43603516 -4.01191406 4.80761719 -3.50390625 4.16015625 C-3.04830322 3.57886963 -2.5927002 2.99758301 -2.12329102 2.39868164 C-1 1 -1 1 0 0 Z " fill="#D6D3EA" transform="translate(479,255)"/>
<path d="M0 0 C2.15059309 3.53186832 2.3797728 6.66287993 2.625 10.75 C2.69976562 11.92046875 2.77453125 13.0909375 2.8515625 14.296875 C2.90054687 15.18890625 2.94953125 16.0809375 3 17 C1 13.25 1 13.25 1 11 C0.34 11 -0.32 11 -1 11 C-1.33 7.7 -1.66 4.4 -2 1 C-1.34 0.67 -0.68 0.34 0 0 Z " fill="#464250" transform="translate(403,801)"/>
<path d="M0 0 C-0.33 0.66 -0.66 1.32 -1 2 C0.65 2 2.3 2 4 2 C1.6870518 4.3129482 0.52095125 4.49580975 -2.625 5.125 C-3.44226563 5.29257812 -4.25953125 5.46015625 -5.1015625 5.6328125 C-6.04128906 5.81457031 -6.04128906 5.81457031 -7 6 C-6.67 5.01 -6.34 4.02 -6 3 C-6.66 2.34 -7.32 1.68 -8 1 C-4.93251126 -0.86240388 -3.40254489 -1.2151946 0 0 Z " fill="#2E394D" transform="translate(321,556)"/>
<path d="M0 0 C4.29 0.33 8.58 0.66 13 1 C13 1.66 13 2.32 13 3 C7.51053913 4.12029814 4.16569441 3.79217969 -1 2 C-0.67 1.34 -0.34 0.68 0 0 Z " fill="#3C3C4B" transform="translate(534,875)"/>
<path d="M0 0 C0.99 0.33 1.98 0.66 3 1 C4.66362417 1.34820041 6.32995171 1.68404492 8 2 C6 5 6 5 4.0546875 5.51171875 C3.33539063 5.56972656 2.61609375 5.62773438 1.875 5.6875 C0.59625 5.790625 -0.6825 5.89375 -2 6 C-2.66 4.68 -3.32 3.36 -4 2 C-2.68 2 -1.36 2 0 2 C0 1.34 0 0.68 0 0 Z " fill="#43404D" transform="translate(505,870)"/>
<path d="M0 0 C0.66 1.32 1.32 2.64 2 4 C2.66 4 3.32 4 4 4 C4.33 2.68 4.66 1.36 5 0 C4.88566637 2.25056722 4.75813564 4.50046674 4.625 6.75 C4.55539062 8.00296875 4.48578125 9.2559375 4.4140625 10.546875 C4.04676696 13.60998121 3.60288714 15.41974266 2 18 C2.03480469 16.84371094 2.03480469 16.84371094 2.0703125 15.6640625 C2.08835937 14.66117188 2.10640625 13.65828125 2.125 12.625 C2.14820313 11.62726562 2.17140625 10.62953125 2.1953125 9.6015625 C2.27216848 6.83737827 2.27216848 6.83737827 0 5 C-0.125 2.375 -0.125 2.375 0 0 Z " fill="#25354D" transform="translate(409,751)"/>
<path d="M0 0 C1.95418308 2.93127462 2.64700993 4.55834679 3 8 C2.34 8.66 1.68 9.32 1 10 C0.34 11.32 -0.32 12.64 -1 14 C-1.66 10.7 -2.32 7.4 -3 4 C-2.34 3.67 -1.68 3.34 -1 3 C-0.67 2.01 -0.34 1.02 0 0 Z " fill="#444250" transform="translate(417,720)"/>
<path d="M0 0 C2.64 0 5.28 0 8 0 C8 0.99 8 1.98 8 3 C9.32 3.66 10.64 4.32 12 5 C10.56260487 5.02712066 9.12506137 5.04645067 7.6875 5.0625 C6.48673828 5.07990234 6.48673828 5.07990234 5.26171875 5.09765625 C3 5 3 5 0 4 C0 2.68 0 1.36 0 0 Z " fill="#46404D" transform="translate(556,876)"/>
<path d="M0 0 C0.99 0.33 1.98 0.66 3 1 C3 1.66 3 2.32 3 3 C3.99 3.33 4.98 3.66 6 4 C6 4.66 6 5.32 6 6 C5.34 6 4.68 6 4 6 C4 7.65 4 9.3 4 11 C3.01 11 2.02 11 1 11 C0.67 7.37 0.34 3.74 0 0 Z " fill="#45424F" transform="translate(403,786)"/>
<path d="M0 0 C0.33 1.98 0.66 3.96 1 6 C0.360625 6.28875 -0.27875 6.5775 -0.9375 6.875 C-3.15206079 7.82823451 -3.15206079 7.82823451 -4 10 C-4.66 10 -5.32 10 -6 10 C-5.51171875 3.9453125 -5.51171875 3.9453125 -5 2 C-2 0 -2 0 0 0 Z " fill="#3F3D4E" transform="translate(338,669)"/>
<path d="M0 0 C2.97 0.99 5.94 1.98 9 3 C8.01 3.495 8.01 3.495 7 4 C7 4.99 7 5.98 7 7 C3.30099992 6.11223998 -0.34550461 5.05418136 -4 4 C-2.68 2.68 -1.36 1.36 0 0 Z " fill="#413D4C" transform="translate(642,906)"/>
<path d="M0 0 C2.3431213 0.25561323 4.67843403 0.59270772 7 1 C7.33 1.66 7.66 2.32 8 3 C10.52733235 3.65555119 10.52733235 3.65555119 13 4 C13 4.33 13 4.66 13 5 C7.22192976 5.2358396 2.48675196 4.86783046 -3 3 C-2.01 2.67 -1.02 2.34 0 2 C0 1.34 0 0.68 0 0 Z " fill="#E3DDEB" transform="translate(444,828)"/>
<path d="M0 0 C1.1577506 3.47325181 1.06866652 6.36067448 1 10 C-0.65 9.67 -2.3 9.34 -4 9 C-3.67 6.36 -3.34 3.72 -3 1 C-2.01 0.67 -1.02 0.34 0 0 Z " fill="#454250" transform="translate(266,647)"/>
<path d="M0 0 C0.99 0 1.98 0 3 0 C2.67 5.61 2.34 11.22 2 17 C1.67 17 1.34 17 1 17 C0.09586327 13.16275828 -0.10576898 9.62497726 -0.0625 5.6875 C-0.05347656 4.61886719 -0.04445313 3.55023437 -0.03515625 2.44921875 C-0.02355469 1.64097656 -0.01195312 0.83273437 0 0 Z " fill="#E2DFEF" transform="translate(438,787)"/>
<path d="M0 0 C6.14587738 0.2410148 6.14587738 0.2410148 8.578125 2.40234375 C9.78844931 3.88046971 10.90220903 5.43647953 12 7 C10.741875 6.87625 9.48375 6.7525 8.1875 6.625 C7.12595703 6.52058594 7.12595703 6.52058594 6.04296875 6.4140625 C4 6 4 6 1 4 C2.65 3.67 4.3 3.34 6 3 C4.02 2.34 2.04 1.68 0 1 C0 0.67 0 0.34 0 0 Z " fill="#2C3144" transform="translate(349,553)"/>
<path d="M0 0 C2.78576391 2.53642084 4.71423062 5.40369256 6.75 8.5625 C7.38421875 9.53316406 8.0184375 10.50382812 8.671875 11.50390625 C9.11015625 12.32761719 9.5484375 13.15132813 10 14 C9.67 14.66 9.34 15.32 9 16 C8.68546875 15.50628906 8.3709375 15.01257813 8.046875 14.50390625 C7.61890625 13.86324219 7.1909375 13.22257812 6.75 12.5625 C6.33234375 11.92441406 5.9146875 11.28632813 5.484375 10.62890625 C3.72751123 8.70097943 2.53910197 8.38520564 0 8 C0.2784375 7.13375 0.2784375 7.13375 0.5625 6.25 C1.04023546 3.79307475 0.75729364 2.35602466 0 0 Z " fill="#2E4656" transform="translate(717,288)"/>
<path d="M0 0 C1.65 0.33 3.3 0.66 5 1 C5.33 2.65 5.66 4.3 6 6 C4.68 6.33 3.36 6.66 2 7 C2 6.34 2 5.68 2 5 C0.68 4.34 -0.64 3.68 -2 3 C-1.34 2.01 -0.68 1.02 0 0 Z " fill="#3B3B4C" transform="translate(661,897)"/>
<path d="M0 0 C2.0625 1.875 2.0625 1.875 4 5 C4.0571754 8.40453547 3.59785505 11.65331142 3 15 C1.08697693 11.73386305 0.64325339 9.00554752 0.375 5.25 C0.30023438 4.26515625 0.22546875 3.2803125 0.1484375 2.265625 C0.09945313 1.51796875 0.05046875 0.7703125 0 0 Z M0 11 C1 15 1 15 1 15 Z " fill="#444250" transform="translate(408,753)"/>
<path d="M0 0 C2.31 0 4.62 0 7 0 C7.33 0.99 7.66 1.98 8 3 C7.01 3 6.02 3 5 3 C5 3.66 5 4.32 5 5 C2.29120665 6.35439668 -0.00933268 6.06501451 -3 6 C-2.505 5.566875 -2.01 5.13375 -1.5 4.6875 C0.33218192 3.00259517 0.33218192 3.00259517 0 0 Z " fill="#4E434E" transform="translate(460,865)"/>
<path d="M0 0 C0.33 1.98 0.66 3.96 1 6 C-0.65 6.66 -2.3 7.32 -4 8 C-4.33 5.69 -4.66 3.38 -5 1 C-3 0 -3 0 0 0 Z " fill="#444250" transform="translate(416,736)"/>
<path d="M0 0 C0.66 0.33 1.32 0.66 2 1 C-2.10037573 6.24972347 -6.52964787 10.20962911 -12 14 C-10.41332422 10.09714233 -7.86649519 7.66479018 -4.875 4.75 C-3.96492188 3.85796875 -3.05484375 2.9659375 -2.1171875 2.046875 C-1.41851562 1.37140625 -0.71984375 0.6959375 0 0 Z " fill="#211827" transform="translate(475,588)"/>
<path d="M0 0 C0.33 0 0.66 0 1 0 C1.33 2.97 1.66 5.94 2 9 C0.35 9.33 -1.3 9.66 -3 10 C-3.33 7.69 -3.66 5.38 -4 3 C-3.01 3 -2.02 3 -1 3 C-0.67 2.01 -0.34 1.02 0 0 Z " fill="#42414F" transform="translate(401,832)"/>
<path d="M0 0 C4.62 0 9.24 0 14 0 C14 0.66 14 1.32 14 2 C12.41986783 2.25028811 10.83557694 2.47440946 9.25 2.6875 C7.92742188 2.87892578 7.92742188 2.87892578 6.578125 3.07421875 C4 3 4 3 0 0 Z " fill="#29354A" transform="translate(559,877)"/>
<path d="M0 0 C0.556875 0.7425 1.11375 1.485 1.6875 2.25 C3.94096218 4.92979286 6.23470981 6.8728537 9 9 C10.0173873 9.98230498 11.02596117 10.97469597 12 12 C11.67 12.66 11.34 13.32 11 14 C9.34190442 12.61875523 7.69889493 11.21938652 6.0625 9.8125 C5.14597656 9.03519531 4.22945313 8.25789062 3.28515625 7.45703125 C0.85829828 4.84764038 0.29156698 3.49260024 0 0 Z " fill="#292C3D" transform="translate(270,673)"/>
<path d="M0 0 C0.66 0 1.32 0 2 0 C2.44524767 1.40794534 2.85525172 2.82707015 3.25 4.25 C3.59804688 5.43335938 3.59804688 5.43335938 3.953125 6.640625 C3.96859375 7.41921875 3.9840625 8.1978125 4 9 C2.68 10.32 1.36 11.64 0 13 C0 8.71 0 4.42 0 0 Z " fill="#433F4E" transform="translate(419,650)"/>
<path d="M0 0 C0.66 0.33 1.32 0.66 2 1 C2.5625 2.75 2.5625 2.75 3 5 C3.185625 5.9075 3.37125 6.815 3.5625 7.75 C3.706875 8.4925 3.85125 9.235 4 10 C2.35 10 0.7 10 -1 10 C-0.67 6.7 -0.34 3.4 0 0 Z " fill="#2A384D" transform="translate(421,697)"/>
<path d="M0 0 C2.29013653 3.4352048 2.17842973 4.985331 2 9 C0.68 9.33 -0.64 9.66 -2 10 C-2 7.03 -2 4.06 -2 1 C-1.34 0.67 -0.68 0.34 0 0 Z " fill="#463F4E" transform="translate(330,699)"/>
<path d="M0 0 C0.3125 2.3125 0.3125 2.3125 0 5 C-2.375 6.875 -2.375 6.875 -5 8 C-5.66 7.67 -6.32 7.34 -7 7 C-7 6.34 -7 5.68 -7 5 C-1.4047619 0 -1.4047619 0 0 0 Z " fill="#3C404E" transform="translate(423,331)"/>
<path d="M0 0 C1.32 0.33 2.64 0.66 4 1 C3.67 2.65 3.34 4.3 3 6 C0.64828869 5.40138258 -1.6859378 4.73075648 -4 4 C-4.33 3.34 -4.66 2.68 -5 2 C-3.02 2 -1.04 2 1 2 C0.67 1.67 0.34 1.34 0 1 C0 0.67 0 0.34 0 0 Z " fill="#2C3249" transform="translate(695,924)"/>
<path d="M0 0 C0 1.65 0 3.3 0 5 C-1.98 5 -3.96 5 -6 5 C-6.66 3.68 -7.32 2.36 -8 1 C-5.29120665 -0.35439668 -2.99066732 -0.06501451 0 0 Z " fill="#3E3B4B" transform="translate(678,902)"/>
<path d="M0 0 C0.99 0.33 1.98 0.66 3 1 C-0.21182149 2.90608098 -2.53882603 3.22266247 -6.25 3.125 C-7.14203125 3.10695313 -8.0340625 3.08890625 -8.953125 3.0703125 C-9.96632813 3.03550781 -9.96632813 3.03550781 -11 3 C-11.33 4.32 -11.66 5.64 -12 7 C-12.33 5.02 -12.66 3.04 -13 1 C-11.84371094 1.01740234 -11.84371094 1.01740234 -10.6640625 1.03515625 C-9.15972656 1.04869141 -9.15972656 1.04869141 -7.625 1.0625 C-6.12839844 1.07990234 -6.12839844 1.07990234 -4.6015625 1.09765625 C-2.01567547 1.18006602 -2.01567547 1.18006602 0 0 Z " fill="#B3B7DE" transform="translate(716,926)"/>
<path d="M0 0 C0 1.32 0 2.64 0 4 C-3.3 3.67 -6.6 3.34 -10 3 C-8 0 -8 0 -5 -0.75 C-2 -1 -2 -1 0 0 Z " fill="#433E4C" transform="translate(669,913)"/>
<path d="M0 0 C3.63 0.66 7.26 1.32 11 2 C11 2.33 11 2.66 11 3 C10.2575 3.144375 9.515 3.28875 8.75 3.4375 C6.07188726 3.93631867 6.07188726 3.93631867 3.8125 4.6875 C3.214375 4.790625 2.61625 4.89375 2 5 C1.34 4.34 0.68 3.68 0 3 C0 2.01 0 1.02 0 0 Z " fill="#46404D" transform="translate(634,894)"/>
<path d="M0 0 C0.33 0.66 0.66 1.32 1 2 C1.66 2.33 2.32 2.66 3 3 C2.67 4.98 2.34 6.96 2 9 C1.34 9 0.68 9 0 9 C-1.3950848 6.70221327 -2.07438619 5.5207033 -1.6875 2.8125 C-1 1 -1 1 0 0 Z " fill="#464250" transform="translate(411,746)"/>
<path d="M0 0 C0.33 0 0.66 0 1 0 C0.67 2.97 0.34 5.94 0 9 C-0.66 8.01 -1.32 7.02 -2 6 C-2.99 6.99 -3.98 7.98 -5 9 C-5 7.68 -5 6.36 -5 5 C-4.34 5 -3.68 5 -3 5 C-2.5359375 4.0409375 -2.5359375 4.0409375 -2.0625 3.0625 C-1 1 -1 1 0 0 Z " fill="#23324B" transform="translate(337,674)"/>
<path d="M0 0 C0.66 0.33 1.32 0.66 2 1 C1.67 3.97 1.34 6.94 1 10 C0.67 9.01 0.34 8.02 0 7 C-0.99 7 -1.98 7 -3 7 C-2.1654738 4.49642139 -1.20628008 2.33214148 0 0 Z " fill="#413E4D" transform="translate(339,653)"/>
<path d="M0 0 C1.2065625 0.0309375 1.2065625 0.0309375 2.4375 0.0625 C2.1075 1.0525 1.7775 2.0425 1.4375 3.0625 C2.0975 3.3925 2.7575 3.7225 3.4375 4.0625 C1.4575 4.7225 -0.5225 5.3825 -2.5625 6.0625 C-2.94468767 4.40635343 -3.27645102 2.73792976 -3.5625 1.0625 C-2.5625 0.0625 -2.5625 0.0625 0 0 Z " fill="#3F3E4F" transform="translate(295.5625,566.9375)"/>
<path d="M0 0 C0.33 0 0.66 0 1 0 C1.33 5.28 1.66 10.56 2 16 C0.35 15.01 -1.3 14.02 -3 13 C-2.34 12.67 -1.68 12.34 -1 12 C-0.53101037 9.1840151 -0.53101037 9.1840151 -0.375 5.9375 C-0.30023438 4.83277344 -0.22546875 3.72804688 -0.1484375 2.58984375 C-0.09945313 1.73519531 -0.05046875 0.88054688 0 0 Z " fill="#EFE9F5" transform="translate(451,624)"/>
<path d="M0 0 C0.99 0.33 1.98 0.66 3 1 C0.36 3.97 -2.28 6.94 -5 10 C-5.66 9.67 -6.32 9.34 -7 9 C-4.69 6.03 -2.38 3.06 0 0 Z " fill="#D6D4EC" transform="translate(456,286)"/>
<path d="M0 0 C0 3.73928499 -0.91959602 4.40902253 -3.375 7.125 C-4.31472656 8.18074219 -4.31472656 8.18074219 -5.2734375 9.2578125 C-7 11 -7 11 -9 12 C-7.55575365 8.76138697 -5.74227753 6.38030837 -3.375 3.75 C-2.74335938 3.04359375 -2.11171875 2.3371875 -1.4609375 1.609375 C-0.97882813 1.07828125 -0.49671875 0.5471875 0 0 Z " fill="#F17C4E" transform="translate(310,226)"/>
<path d="M0 0 C0.66 0.33 1.32 0.66 2 1 C2.33 1.99 2.66 2.98 3 4 C3.66 4.66 4.32 5.32 5 6 C3.1875 6.6875 3.1875 6.6875 1 7 C-0.625 5.6875 -0.625 5.6875 -2 4 C-2.66 3.34 -3.32 2.68 -4 2 C-2.125 0.9375 -2.125 0.9375 0 0 Z " fill="#433C4A" transform="translate(682,918)"/>
<path d="M0 0 C1.32 1.32 2.64 2.64 4 4 C2.02 4.66 0.04 5.32 -2 6 C-2.33 4.35 -2.66 2.7 -3 1 C-2.01 0.67 -1.02 0.34 0 0 Z " fill="#403C4C" transform="translate(663,886)"/>
<path d="M0 0 C0.99 0.33 1.98 0.66 3 1 C2.74438677 3.3431213 2.40729228 5.67843403 2 8 C1.01 8.495 1.01 8.495 0 9 C0 6.03 0 3.06 0 0 Z " fill="#414150" transform="translate(408,344)"/>
<path d="M0 0 C4.66597781 2.07376792 8.16111562 4.74167343 11 9 C8 9 8 9 5.95703125 7.28515625 C5.24933594 6.55167969 4.54164063 5.81820313 3.8125 5.0625 C3.09707031 4.33160156 2.38164063 3.60070312 1.64453125 2.84765625 C0 1 0 1 0 0 Z " fill="#2E4756" transform="translate(670,337)"/>
<path d="M0 0 C0.99 0.33 1.98 0.66 3 1 C3 3.64 3 6.28 3 9 C2.01 9 1.02 9 0 9 C0 6.03 0 3.06 0 0 Z " fill="#E4D5DF" transform="translate(438,778)"/>
<path d="M0 0 C1.258125 -0.04125 2.51625 -0.0825 3.8125 -0.125 C4.52019531 -0.14820313 5.22789062 -0.17140625 5.95703125 -0.1953125 C8 0 8 0 11 2 C9.741875 2.185625 8.48375 2.37125 7.1875 2.5625 C6.12595703 2.71912109 6.12595703 2.71912109 5.04296875 2.87890625 C3 3 3 3 0 2 C0 1.34 0 0.68 0 0 Z " fill="#29354C" transform="translate(337,551)"/>
<path d="M0 0 C0.33 0 0.66 0 1 0 C1.25028811 1.58013217 1.47440946 3.16442306 1.6875 4.75 C1.87892578 6.07257812 1.87892578 6.07257812 2.07421875 7.421875 C1.98397191 10.55676517 1.07384637 11.71823587 -1 14 C-1.08333357 9.1666528 -0.95261487 4.76307437 0 0 Z " fill="#1E344D" transform="translate(401,806)"/>
<path d="M0 0 C0 3 0 3 -1.53125 4.60546875 C-2.1809375 5.12753906 -2.830625 5.64960937 -3.5 6.1875 C-4.1496875 6.71730469 -4.799375 7.24710938 -5.46875 7.79296875 C-5.9740625 8.19128906 -6.479375 8.58960938 -7 9 C-7.66 8.67 -8.32 8.34 -9 8 C-6.03 5.36 -3.06 2.72 0 0 Z " fill="#D4D6EF" transform="translate(580,733)"/>
<path d="M0 0 C1.134375 0.020625 2.26875 0.04125 3.4375 0.0625 C3.1075 1.0525 2.7775 2.0425 2.4375 3.0625 C1.4475 3.3925 0.4575 3.7225 -0.5625 4.0625 C-2.75 2.625 -2.75 2.625 -4.5625 1.0625 C-3.5625 0.0625 -3.5625 0.0625 0 0 Z " fill="#3E3D4C" transform="translate(670.5625,889.9375)"/>
<path d="M0 0 C1.98 0.66 3.96 1.32 6 2 C5 5 5 5 3 7 C2.67 6.01 2.34 5.02 2 4 C1.34 3.67 0.68 3.34 0 3 C0 2.01 0 1.02 0 0 Z " fill="#414050" transform="translate(405,774)"/>
<path d="M0 0 C0.33 1.32 0.66 2.64 1 4 C-0.65 4.33 -2.3 4.66 -4 5 C-4.33 3.68 -4.66 2.36 -5 1 C-2 0 -2 0 0 0 Z " fill="#3F404F" transform="translate(402,411)"/>
<path d="M0 0 C0 0.66 0 1.32 0 2 C0.99 2.33 1.98 2.66 3 3 C-3.625 3.25 -3.625 3.25 -7 1 C-4 0 -4 0 0 0 Z " fill="#E2E2F3" transform="translate(560,849)"/>
<path d="M0 0 C2.9375 0.375 2.9375 0.375 6 1 C6.33 1.66 6.66 2.32 7 3 C4.36 3.33 1.72 3.66 -1 4 C-0.67 2.68 -0.34 1.36 0 0 Z " fill="#E2D2DE" transform="translate(514,840)"/>
<path d="M0 0 C0.66 0.66 1.32 1.32 2 2 C1.625 5.625 1.625 5.625 1 9 C0.67 9 0.34 9 0 9 C0 7.02 0 5.04 0 3 C-1.32 3 -2.64 3 -4 3 C-4 2.34 -4 1.68 -4 1 C-2.125 0.375 -2.125 0.375 0 0 Z " fill="#C58675" transform="translate(443,712)"/>
<path d="M0 0 C1.32 0.66 2.64 1.32 4 2 C3.67 3.32 3.34 4.64 3 6 C1.68 5.67 0.36 5.34 -1 5 C-0.67 3.35 -0.34 1.7 0 0 Z " fill="#424150" transform="translate(312,557)"/>
<path d="M0 0 C0.66 0 1.32 0 2 0 C1.67 1.32 1.34 2.64 1 4 C1.66 4.33 2.32 4.66 3 5 C2.01 5.66 1.02 6.32 0 7 C-0.99 6.67 -1.98 6.34 -3 6 C-2.34 5.34 -1.68 4.68 -1 4 C-0.3574765 1.93125966 -0.3574765 1.93125966 0 0 Z " fill="#2D384D" transform="translate(310,558)"/>
<path d="M0 0 C2.475 0.495 2.475 0.495 5 1 C5.33 2.32 5.66 3.64 6 5 C3.5625 4.1875 3.5625 4.1875 1 3 C0.67 2.01 0.34 1.02 0 0 Z " fill="#403B4B" transform="translate(708,910)"/>
<path d="M0 0 C0 0.66 0 1.32 0 2 C0.66 2.33 1.32 2.66 2 3 C-4.625 3.25 -4.625 3.25 -8 1 C-2.25 0 -2.25 0 0 0 Z " fill="#E2E1F1" transform="translate(514,840)"/>
<path d="M0 0 C0.99 0 1.98 0 3 0 C5.10770759 2.88834003 6 4.38462395 6 8 C4.99403703 7.0479279 3.99538437 6.08812654 3 5.125 C2.443125 4.59132813 1.88625 4.05765625 1.3125 3.5078125 C0 2 0 2 0 0 Z " fill="#D6D5ED" transform="translate(345,541)"/>
<path d="M0 0 C1.3921875 0.3403125 1.3921875 0.3403125 2.8125 0.6875 C2.173125 0.97625 1.53375 1.265 0.875 1.5625 C-1.33956079 2.51573451 -1.33956079 2.51573451 -2.1875 4.6875 C-3.5075 4.0275 -4.8275 3.3675 -6.1875 2.6875 C-4.14987265 -0.14253799 -3.59070275 -0.35202968 0 0 Z " fill="#D58268" transform="translate(452.1875,298.3125)"/>
</svg>
